<svg width="265" height="264" viewBox="0 0 265 264" fill="none" xmlns="http://www.w3.org/2000/svg">
<path d="M264.612 163.311C264.612 163.311 264.612 163.295 264.612 163.285V163.248V163.222V163.217V163.164C264.612 163.164 264.612 163.19 264.612 163.206V163.038C264.601 162.986 264.601 162.934 264.596 162.881L264.585 162.656C264.575 162.525 264.559 162.373 264.543 162.221C264.543 162.194 264.538 162.163 264.533 162.137C264.533 162.111 264.528 162.079 264.522 162.053V162.016C264.522 162.016 264.512 161.99 264.512 161.974L264.501 161.917C264.433 161.424 264.344 161.02 264.26 160.727C264.239 160.643 264.207 160.543 264.176 160.433C264.16 160.381 264.145 160.328 264.129 160.276C264.118 160.239 264.108 160.213 264.097 160.176C264.097 160.166 264.087 160.15 264.087 160.14L264.04 160.003L264.029 159.977C263.987 159.857 263.94 159.736 263.893 159.61C263.851 159.511 263.809 159.411 263.767 159.317C263.704 159.18 263.646 159.044 263.588 158.929L263.567 158.882C263.567 158.882 263.546 158.84 263.536 158.819C263.504 158.75 263.468 158.682 263.436 158.619C263.305 158.363 263.189 158.169 263.105 158.032C263.1 158.022 263.09 158.006 263.085 157.996C263.048 157.938 263.016 157.886 262.98 157.833C262.943 157.775 262.906 157.723 262.864 157.66L262.733 157.461C262.733 157.461 262.696 157.409 262.675 157.388C262.576 157.241 262.471 157.099 262.376 156.984C262.24 156.811 262.072 156.617 261.904 156.423C261.893 156.407 261.878 156.392 261.867 156.381L261.841 156.355C261.662 156.156 261.479 155.956 261.306 155.799C261.169 155.668 261.006 155.527 260.844 155.38C260.807 155.348 260.77 155.317 260.739 155.285C260.676 155.228 260.608 155.175 260.545 155.118C260.534 155.113 260.524 155.102 260.518 155.097C260.356 154.96 260.193 154.829 260.046 154.719C260.02 154.704 259.994 154.683 259.967 154.662C259.794 154.531 259.616 154.405 259.427 154.279C259.364 154.237 259.306 154.195 259.238 154.148C259.259 154.158 259.28 154.174 259.296 154.185L259.228 154.138C259.228 154.138 259.217 154.127 259.207 154.122C259.196 154.117 259.186 154.111 259.18 154.106L258.981 153.975C258.787 153.854 258.53 153.702 258.33 153.582C258.577 153.734 258.886 153.917 259.149 154.085C258.892 153.928 258.577 153.729 258.325 153.577C258.325 153.577 258.315 153.571 258.309 153.566C258.309 153.566 258.309 153.566 258.304 153.566C258.304 153.566 258.299 153.566 258.294 153.561C258.294 153.561 258.294 153.561 258.299 153.561C258.273 153.545 258.246 153.529 258.215 153.519C258.225 153.524 258.231 153.529 258.241 153.535C258.21 153.519 258.183 153.503 258.152 153.498C258.152 153.498 258.152 153.498 258.147 153.498C258.147 153.498 258.141 153.498 258.136 153.498C258.136 153.498 258.126 153.498 258.12 153.493C258.115 153.493 258.105 153.493 258.099 153.493C258.094 153.493 258.084 153.493 258.078 153.488C258.078 153.488 258.078 153.488 258.073 153.488H258.063C258.052 153.488 258.042 153.488 258.031 153.488C258.021 153.488 258.01 153.488 258 153.488C257.984 153.488 257.973 153.488 257.958 153.488C257.947 153.488 257.937 153.488 257.926 153.488C257.916 153.488 257.9 153.493 257.889 153.493C257.889 153.493 257.879 153.493 257.874 153.493C257.863 153.493 257.858 153.493 257.847 153.493C257.827 153.493 257.8 153.503 257.779 153.508C257.774 153.508 257.764 153.508 257.758 153.508C257.737 153.514 257.711 153.519 257.69 153.529C257.674 153.529 257.664 153.535 257.648 153.54C257.648 153.54 257.648 153.54 257.653 153.54C257.606 153.561 257.559 153.577 257.512 153.603C257.716 153.723 257.916 153.839 258.105 153.965C258.53 154.237 258.918 154.515 259.28 154.808C259.422 154.924 259.563 155.039 259.695 155.154C260.261 155.652 260.739 156.171 261.127 156.711C261.757 157.739 262.423 159.102 262.434 160.653C262.381 162.284 261.631 163.903 260.167 165.35C260.151 165.366 260.135 165.382 260.12 165.392C260.041 165.471 259.957 165.544 259.873 165.617C259.338 166.094 258.703 166.571 257.958 167.054C257.832 167.132 257.706 167.211 257.575 167.29L108.902 253.599C108.587 253.782 108.256 253.945 107.926 254.107C107.034 254.537 105.9 255.004 104.552 255.407C101.765 256.215 98.6744 256.545 95.6308 256.388C92.9966 256.215 90.0737 255.633 86.9147 254.422C86.3427 254.165 85.7812 253.898 85.2565 253.594L7.0894 208.513C2.40336 205.813 1.05475 201.908 3.04356 198.521C3.07505 198.469 3.10653 198.422 3.13802 198.369C3.1695 198.322 3.20099 198.275 3.23247 198.223C3.82019 197.342 4.60732 196.535 5.53089 195.811C5.98218 195.471 6.47019 195.14 7.01069 194.826C7.00019 194.821 6.9897 194.815 6.9792 194.81C6.96346 194.805 6.95297 194.8 6.93722 194.794C6.92148 194.789 6.91099 194.784 6.89524 194.779C6.8795 194.773 6.86901 194.768 6.85326 194.763C6.83752 194.758 6.82702 194.758 6.81128 194.752C6.80603 194.752 6.80079 194.752 6.79029 194.752C6.78504 194.752 6.77455 194.747 6.7693 194.747C6.7693 194.747 6.76405 194.747 6.75881 194.747C6.75356 194.747 6.74306 194.747 6.73782 194.747C6.73782 194.747 6.73257 194.747 6.72732 194.747C6.72732 194.747 6.71683 194.747 6.71158 194.747C6.70109 194.747 6.69584 194.747 6.68534 194.742C6.68534 194.742 6.68534 194.742 6.68009 194.742C6.67485 194.742 6.66435 194.742 6.6591 194.742C6.65386 194.742 6.64861 194.742 6.64336 194.742C6.64336 194.742 6.63811 194.742 6.63287 194.742C6.62237 194.742 6.60663 194.742 6.59614 194.742C6.59614 194.742 6.59089 194.742 6.58564 194.742C6.58039 194.742 6.57514 194.742 6.56465 194.742C6.56465 194.742 6.55415 194.742 6.54891 194.742C6.54891 194.742 6.54891 194.742 6.54366 194.742C6.54366 194.742 6.53841 194.742 6.53316 194.742C6.52792 194.742 6.52267 194.742 6.51742 194.742C6.51217 194.742 6.50693 194.742 6.50168 194.742H6.49118C6.49118 194.742 6.49119 194.742 6.48594 194.742C6.48069 194.742 6.47019 194.742 6.46495 194.742C6.46495 194.742 6.45445 194.742 6.4492 194.742C6.44396 194.742 6.43346 194.742 6.42821 194.742C6.42821 194.742 6.42296 194.742 6.41772 194.742C6.41772 194.742 6.41247 194.742 6.40722 194.742C6.40198 194.742 6.39673 194.742 6.39148 194.742C6.39148 194.742 6.38623 194.742 6.38098 194.742C6.38098 194.742 6.38099 194.742 6.37574 194.742C6.37574 194.742 6.37049 194.742 6.36524 194.742C6.36524 194.742 6.36 194.742 6.35475 194.742C6.3495 194.742 6.34425 194.742 6.33901 194.747C6.29703 194.763 6.25504 194.784 6.21306 194.805C6.10287 194.873 5.97693 194.946 5.85099 195.025C5.72505 195.104 5.61485 195.172 5.51514 195.235C5.44168 195.282 5.37346 195.324 5.30524 195.371C5.29475 195.381 5.27901 195.387 5.26851 195.397C5.0901 195.518 4.91168 195.633 4.76475 195.748C4.63356 195.848 4.49713 195.958 4.3502 196.073C4.24 196.157 4.1193 196.252 3.98287 196.362L3.27445 197.001C3.09079 197.169 2.71297 197.562 2.33515 198.029V198.039C2.10425 198.312 1.88386 198.61 1.7002 198.894C1.62673 199.009 1.52178 199.177 1.40634 199.376C1.38535 199.407 1.36436 199.439 1.34861 199.47L1.31188 199.538C1.22792 199.685 1.14396 199.848 1.05475 200.026L1.03376 200.063C1.03376 200.063 1.02326 200.083 1.01802 200.094C0.844848 200.45 0.666434 200.859 0.519504 201.31L0.503762 201.357C0.503762 201.357 0.493264 201.389 0.493264 201.399C0.482769 201.431 0.472277 201.457 0.467029 201.483C0.440792 201.562 0.425048 201.625 0.404057 201.693C0.37782 201.787 0.346334 201.887 0.325344 201.971C0.320096 201.992 0.314849 202.013 0.309602 202.028L0.29386 202.096C0.215147 202.411 0.173167 202.615 0.162672 202.704C0.152177 202.762 0.146929 202.804 0.141681 202.851C0.120691 202.993 0.0997037 203.134 0.0787136 203.26L0.0682163 203.381C0.0524738 203.522 0.0367314 203.648 0.0314839 203.774V203.826L0.0157419 203.968C0.0157419 204.136 0.00524752 204.361 0 204.534V205.263C0 205.65 0.0209893 206.007 0.0524744 206.327C0.0524744 206.337 0.0524744 206.348 0.0524744 206.363C0.0892071 206.751 0.146929 207.082 0.199404 207.349C0.199404 207.349 0.199404 207.354 0.199404 207.359C0.241385 207.574 0.288611 207.753 0.325344 207.884C0.341086 207.931 0.356831 207.994 0.372574 208.057C0.430296 208.266 0.493268 208.471 0.566733 208.67C0.592971 208.743 0.619205 208.822 0.645443 208.895C0.818611 209.351 1.01277 209.781 1.23317 210.18C1.31713 210.342 1.39584 210.473 1.45881 210.578C1.53228 210.699 1.60574 210.814 1.68445 210.929C1.77366 211.065 1.86812 211.202 1.96257 211.333C1.98881 211.364 2.0098 211.401 2.03079 211.432C2.40336 211.946 2.84416 212.465 3.52109 213.094C3.8097 213.361 4.20326 213.707 4.52336 213.938C4.79099 214.132 5.10584 214.347 5.42594 214.557C5.75653 214.777 6.05564 214.965 6.29703 215.112C6.24455 215.081 6.19207 215.039 6.1396 214.992C6.19207 215.039 6.24455 215.076 6.29703 215.112L14.1158 219.62L21.9346 224.128L29.7534 228.637L37.5723 233.145L45.3911 237.653L53.2099 242.161L61.0287 246.669L68.8475 251.177L76.6663 255.685L84.4851 260.193C84.5743 260.246 84.6688 260.298 84.7685 260.351C84.8577 260.398 84.9469 260.45 85.0361 260.497C85.0466 260.503 85.0623 260.513 85.0781 260.518C85.225 260.597 85.3667 260.67 85.5084 260.738C85.5608 260.765 85.6186 260.796 85.671 260.822L85.8442 260.901C86.0856 261.016 86.3217 261.121 86.5579 261.221L86.7625 261.31C86.8937 261.362 87.0406 261.42 87.1928 261.478C87.408 261.561 87.6179 261.64 87.8225 261.713C87.8802 261.734 87.9432 261.755 87.9957 261.776L88.0954 261.808C88.468 261.934 88.8091 262.044 89.1239 262.133L89.2026 262.159C89.2761 262.18 89.3548 262.201 89.4388 262.222C89.8061 262.322 90.1104 262.4 90.3466 262.458C90.3781 262.468 90.4096 262.474 90.4463 262.484C90.4568 262.484 90.4725 262.489 90.483 262.495C90.5145 262.5 90.546 262.51 90.5722 262.516C94.1038 263.349 98.1811 263.564 102.285 262.788C102.878 262.683 103.381 262.573 103.744 262.489C104.142 262.395 104.678 262.264 105.066 262.138C105.076 262.138 105.092 262.128 105.108 262.122C105.475 262.012 105.921 261.86 106.262 261.75L107.422 261.305C107.574 261.247 107.747 261.168 107.921 261.09C108.104 261.011 108.262 260.932 108.445 260.843C108.519 260.807 108.592 260.77 108.655 260.738C108.97 260.581 109.379 260.351 109.689 260.183L124.555 251.555L139.421 242.926L154.288 234.298L169.154 225.67L184.02 217.041L198.886 208.413L213.753 199.785L228.619 191.156L243.485 182.528L258.351 173.9C258.782 173.643 259.144 173.412 259.464 173.192C259.479 173.182 259.495 173.171 259.511 173.161L259.527 173.15C259.815 172.951 260.067 172.757 260.303 172.568L260.33 172.547C260.613 172.317 260.734 172.222 260.954 172.013C260.975 171.997 260.996 171.976 261.012 171.96C261.18 171.808 261.369 171.62 261.573 171.41C261.594 171.389 261.61 171.373 261.631 171.352L261.678 171.3C261.836 171.127 261.998 170.943 262.156 170.755L262.187 170.718C262.187 170.718 262.198 170.702 262.208 170.692C262.444 170.403 262.665 170.11 262.848 169.827C262.922 169.711 263.022 169.554 263.137 169.36L263.221 169.224C263.268 169.145 263.315 169.051 263.363 168.957C263.363 168.957 263.363 168.946 263.368 168.946C263.394 168.904 263.42 168.857 263.441 168.815C263.431 168.836 263.42 168.852 263.41 168.873C263.468 168.768 263.52 168.653 263.578 168.537C263.588 168.516 263.599 168.49 263.609 168.469L263.63 168.422C263.704 168.265 263.777 168.097 263.845 167.924L263.861 167.892L263.893 167.814C263.971 167.615 264.045 167.415 264.108 167.201C264.118 167.169 264.124 167.143 264.134 167.111L264.15 167.069C264.15 167.069 264.145 167.09 264.139 167.101C264.186 166.944 264.228 166.797 264.26 166.666L264.27 166.634C264.27 166.634 264.27 166.613 264.276 166.603C264.365 166.241 264.402 166.021 264.412 165.963C264.428 165.864 264.444 165.775 264.454 165.696L264.486 165.497C264.475 165.555 264.465 165.617 264.459 165.675C264.459 165.659 264.459 165.644 264.465 165.628L264.496 165.403C264.496 165.403 264.496 165.355 264.501 165.334C264.522 165.182 264.533 165.041 264.543 164.873C264.543 164.826 264.554 164.779 264.554 164.737C264.554 164.658 264.554 164.569 264.559 164.48C264.559 164.428 264.559 164.38 264.564 164.338C264.564 164.281 264.564 164.228 264.564 164.171V163.442V163.353L264.612 163.311ZM110.439 258.463C110.439 258.463 110.439 258.427 110.439 258.406C110.439 258.406 110.439 258.443 110.439 258.463ZM83.7714 258.102C83.7714 258.993 83.9761 259.669 84.3067 260.01C83.9813 259.669 83.7714 258.993 83.7714 258.102ZM84.3434 260.052C84.3434 260.052 84.3959 260.088 84.4221 260.109C84.3959 260.088 84.3697 260.073 84.3434 260.052Z" fill="#3D6698"/>
<path d="M258.063 153.32C264.612 157.094 264.643 163.227 258.136 167.007C208.579 195.775 157.525 225.339 107.968 254.107C101.461 257.887 91.4014 257.09 84.8525 253.316C58.7985 238.287 32.7393 223.264 6.68539 208.235C0.136483 204.455 0.0997497 198.327 6.60668 194.548C56.1643 165.78 106.682 137.012 156.24 108.239C162.747 104.459 173.347 104.459 179.896 108.239C205.95 123.267 232.009 138.291 258.063 153.32Z" fill="#1F3A57"/>
<path d="M242.456 152.554L180.441 116.788C173.053 112.527 161.104 112.527 153.758 116.788L40.81 182.355C33.4687 186.617 33.5054 193.531 40.8992 197.793L102.914 233.559C110.308 237.826 122.252 237.826 129.598 233.559L242.546 167.992C249.887 163.73 249.855 156.816 242.456 152.549V152.554Z" fill="#F6F0E9"/>
<path d="M68.8738 226.954L51.5622 216.968C50.5337 216.376 48.8703 216.376 47.847 216.968C46.829 217.56 46.8342 218.52 47.8627 219.117L65.1743 229.103C66.1976 229.695 67.861 229.695 68.8791 229.103C69.9023 228.511 69.8971 227.546 68.8686 226.954H68.8738Z" fill="#3D6698"/>
<path d="M143.467 225.512C143.242 225.124 142.927 224.789 142.512 224.553L54.7789 174.251L49.8987 177.082C50.1243 177.47 50.4392 177.805 50.8537 178.046L138.587 228.348L143.467 225.518V225.512Z" fill="#F3C8B7"/>
<path d="M180.714 203.926C180.488 203.538 180.174 203.202 179.759 202.967L92.0257 152.664L87.1455 155.495C87.3712 155.883 87.686 156.219 88.1006 156.46L175.834 206.762L180.714 203.931V203.926Z" fill="#F3C8B7"/>
<path d="M218.932 181.773C218.706 181.385 218.391 181.05 217.977 180.814L130.243 130.512L125.363 133.343C125.589 133.73 125.904 134.066 126.318 134.307L214.052 184.609L218.932 181.778V181.773Z" fill="#F3C8B7"/>
<path d="M92.0993 227.321L232.596 146.867L227.338 143.837L86.8413 224.291L92.0993 227.321Z" fill="#F3C8B7"/>
<path d="M186.508 85.5522C186.516 85.3664 186.508 85.1806 186.524 84.9948C186.532 84.6697 186.539 84.3369 186.547 84.004C186.547 83.8105 186.563 83.6247 186.563 83.4389C186.563 83.2144 186.563 82.99 186.555 82.7577C186.555 82.4481 186.555 82.1462 186.539 81.8366C186.539 81.6817 186.539 81.5269 186.539 81.3721C186.532 81.078 186.508 80.7838 186.501 80.4896C186.485 80.2032 186.477 79.9246 186.462 79.6382C186.462 79.5298 186.454 79.4292 186.446 79.3285C186.423 78.9105 186.384 78.4925 186.345 78.0745C186.329 77.8577 186.314 77.6487 186.291 77.432C186.291 77.3856 186.291 77.3391 186.283 77.2927C186.221 76.6192 186.143 75.9458 186.057 75.2646C186.057 75.2413 186.057 75.2181 186.049 75.2026C186.034 75.0633 186.011 74.924 185.987 74.7924C185.917 74.2737 185.847 73.7551 185.762 73.2287C185.746 73.1358 185.731 73.0429 185.715 72.9423C185.676 72.6791 185.622 72.4159 185.575 72.1527C185.521 71.8199 185.466 71.487 185.404 71.1541C185.373 70.9838 185.334 70.8058 185.295 70.6355C185.241 70.3414 185.179 70.0472 185.116 69.7531C185.07 69.5208 185.023 69.2886 184.976 69.0486C184.922 68.7932 184.852 68.53 184.798 68.2668C184.728 67.9726 184.658 67.6708 184.588 67.3766C184.549 67.2218 184.518 67.067 184.479 66.9121C184.385 66.5406 184.277 66.1613 184.183 65.782C184.113 65.5188 184.051 65.2556 183.973 65.0002C183.95 64.9227 183.934 64.8376 183.911 64.7602C183.717 64.0713 183.514 63.3823 183.305 62.6934C183.297 62.6701 183.289 62.6392 183.281 62.616C183.281 62.616 183.281 62.616 183.281 62.6082C183.063 61.8961 182.83 61.1839 182.589 60.4717C182.558 60.3866 182.527 60.3014 182.496 60.2163C182.418 59.9763 182.325 59.7364 182.247 59.4964C182.115 59.1171 181.99 58.7455 181.85 58.3662C181.78 58.1727 181.703 57.9714 181.625 57.7779C181.524 57.507 181.423 57.2361 181.314 56.9574C181.228 56.7329 181.151 56.5084 181.057 56.2839C180.917 55.9201 180.762 55.5563 180.614 55.2002C180.521 54.968 180.427 54.7435 180.334 54.5113C180.295 54.4184 180.256 54.3177 180.217 54.2249C179.93 53.5359 179.626 52.8392 179.315 52.1348C179.308 52.1116 179.292 52.0884 179.284 52.0729C179.23 51.949 179.175 51.8252 179.113 51.7091C178.857 51.1285 178.592 50.5479 178.32 49.9674C178.211 49.7429 178.11 49.5184 178.001 49.2939C177.729 48.7288 177.449 48.1637 177.169 47.5987C176.983 47.2271 176.788 46.8633 176.601 46.4995C176.423 46.1511 176.244 45.8028 176.065 45.4622C175.964 45.2764 175.871 45.0829 175.769 44.8971C175.591 44.5642 175.396 44.2391 175.217 43.914C174.821 43.1864 174.424 42.4665 174.012 41.7543C173.895 41.553 173.787 41.344 173.67 41.1428C173.475 40.8099 173.273 40.4925 173.079 40.1674C172.752 39.6256 172.426 39.0837 172.099 38.5496C171.765 38.0077 171.415 37.4659 171.073 36.9317C170.73 36.4053 170.388 35.879 170.038 35.3526C169.898 35.1436 169.766 34.9268 169.626 34.7178C169.471 34.4856 169.3 34.2689 169.144 34.0366C168.545 33.1697 167.939 32.3182 167.325 31.4744C167.153 31.2344 166.99 30.9867 166.811 30.7545C166.679 30.5765 166.547 30.4139 166.415 30.2359C166.135 29.8643 165.855 29.5005 165.567 29.1289C165.318 28.8038 165.077 28.4787 164.821 28.1613C164.611 27.8904 164.393 27.6349 164.175 27.3717C163.934 27.0699 163.693 26.7757 163.444 26.4738C163.281 26.2725 163.125 26.0713 162.962 25.8778C162.566 25.4056 162.161 24.9488 161.765 24.4844C161.601 24.2986 161.446 24.1051 161.283 23.9271C161.236 23.8729 161.181 23.8109 161.135 23.7568C160.513 23.0523 159.891 22.3634 159.261 21.6899C159.199 21.628 159.136 21.5661 159.074 21.4964C158.88 21.2874 158.685 21.0939 158.491 20.8849C158.094 20.4669 157.698 20.0489 157.293 19.6386C157.122 19.4683 156.951 19.298 156.78 19.1277C156.508 18.8568 156.236 18.5936 155.964 18.3227C155.723 18.0904 155.489 17.8505 155.248 17.6182C154.961 17.3396 154.665 17.0764 154.377 16.8054C154.097 16.55 153.825 16.2868 153.545 16.0314C153.405 15.9075 153.273 15.7759 153.133 15.6521C152.659 15.2263 152.177 14.816 151.702 14.4058C151.508 14.2432 151.321 14.0652 151.127 13.9026C151.08 13.8639 151.041 13.8252 150.995 13.7865C150.287 13.1982 149.579 12.6176 148.872 12.0603C148.817 12.0138 148.755 11.9751 148.701 11.9287C148.514 11.7816 148.32 11.6423 148.133 11.5029C147.682 11.1623 147.239 10.814 146.788 10.4811C146.601 10.3418 146.415 10.218 146.228 10.0864C145.979 9.90832 145.722 9.73028 145.474 9.55224C145.233 9.38194 144.999 9.21165 144.758 9.04909C144.354 8.77816 143.957 8.51497 143.553 8.25178C143.374 8.13566 143.195 8.01181 143.009 7.8957C142.939 7.84925 142.861 7.79506 142.791 7.74862C142.145 7.33835 141.508 6.95131 140.862 6.57201C140.715 6.48686 140.567 6.40171 140.419 6.31656C139.945 6.04563 139.47 5.77469 138.996 5.51925C138.794 5.41087 138.6 5.31798 138.405 5.20961C138.164 5.08576 137.923 4.9619 137.69 4.83805C137.511 4.74516 137.332 4.65227 137.153 4.55938C136.795 4.38134 136.446 4.22652 136.096 4.06396C135.901 3.97107 135.707 3.87818 135.52 3.79303C135.45 3.76207 135.38 3.7311 135.318 3.70014C134.696 3.42147 134.082 3.16602 133.467 2.91831C133.444 2.91057 133.413 2.90283 133.39 2.88735C133.257 2.83316 133.133 2.79446 133.001 2.74027C132.534 2.56223 132.068 2.37645 131.601 2.21389C131.484 2.17519 131.376 2.14422 131.259 2.10552C131.01 2.02037 130.761 1.94296 130.52 1.86555C130.248 1.7804 129.976 1.67977 129.704 1.60236C129.509 1.54818 129.323 1.50173 129.128 1.44754C128.848 1.37014 128.576 1.29273 128.296 1.22306C128.117 1.17661 127.931 1.12243 127.752 1.07598C127.495 1.01406 127.246 0.96761 126.99 0.905683C126.702 0.843756 126.414 0.774088 126.134 0.719902C126.01 0.696679 125.886 0.665716 125.769 0.634752C125.473 0.580566 125.178 0.541861 124.89 0.487675C124.587 0.433489 124.291 0.379303 123.988 0.340599C123.903 0.325117 123.809 0.309635 123.724 0.294153C123.444 0.255449 123.164 0.239967 122.884 0.209004C122.519 0.170299 122.161 0.123854 121.803 0.100631C121.718 0.100631 121.64 0.0774088 121.554 0.0774088C121.321 0.061927 121.096 0.061927 120.862 0.0541861C120.427 0.0309635 119.999 0.0154818 119.571 0.00774088C119.47 0.00774088 119.361 0 119.26 0C118.802 0 118.351 0.0154818 117.9 0.0387044C117.83 0.0387044 117.752 0.0464453 117.682 0.0541861C117.379 0.0696679 117.075 0.0851497 116.78 0.116113C116.554 0.139336 116.329 0.170299 116.095 0.193522C115.948 0.209004 115.8 0.224485 115.652 0.247708C115.1 0.317376 114.556 0.402526 114.011 0.510898C113.98 0.510898 113.957 0.52638 113.926 0.534121C113.724 0.572825 113.529 0.627011 113.335 0.673456C112.923 0.766347 112.511 0.859237 112.106 0.975351C111.873 1.03728 111.648 1.11469 111.414 1.1921C111.142 1.27724 110.87 1.35465 110.598 1.44754C110.52 1.47077 110.45 1.50947 110.38 1.53269C109.945 1.68751 109.517 1.86555 109.097 2.05133C108.887 2.13648 108.677 2.22163 108.475 2.31452C107.853 2.60093 107.246 2.91057 106.655 3.25117L87.8059 14.1581C88.3969 13.8175 89.0034 13.5078 89.6255 13.2214C89.8277 13.1285 90.0377 13.0511 90.2476 12.9582C90.6753 12.7724 91.0952 12.5944 91.5307 12.4396C91.8728 12.3157 92.215 12.2074 92.5649 12.099C92.7982 12.0293 93.0237 11.9519 93.257 11.8822C93.6613 11.7661 94.0735 11.6732 94.4856 11.5804C94.68 11.5339 94.8744 11.4797 95.0766 11.441C95.6442 11.3249 96.2197 11.232 96.8029 11.1546C96.9506 11.1314 97.0984 11.1236 97.2461 11.1004C97.7671 11.0385 98.2959 10.992 98.8324 10.9611C98.9024 10.9611 98.9802 10.9533 99.0502 10.9456C99.6023 10.9146 100.162 10.9146 100.722 10.9146C101.15 10.9146 101.585 10.9379 102.013 10.9611C102.324 10.9766 102.635 10.9843 102.954 11.0075C103.312 11.0385 103.677 11.0772 104.035 11.1159C104.4 11.1546 104.766 11.1933 105.139 11.2475C105.434 11.2862 105.738 11.3481 106.041 11.3946C106.453 11.4642 106.873 11.5339 107.293 11.6191C107.581 11.6732 107.861 11.7429 108.148 11.8048C108.584 11.9055 109.011 12.0061 109.455 12.1222C109.727 12.1919 110.007 12.2693 110.287 12.3467C110.745 12.4783 111.204 12.6176 111.671 12.7647C111.92 12.8421 112.169 12.9195 112.417 13.0047C112.993 13.1982 113.576 13.4149 114.159 13.6394C114.291 13.6859 114.416 13.7323 114.548 13.7865C115.256 14.0652 115.971 14.3748 116.686 14.6922C116.881 14.7773 117.075 14.8702 117.262 14.9631C117.791 15.2108 118.319 15.4663 118.856 15.7372C119.097 15.8611 119.33 15.9849 119.571 16.1088C120.24 16.4571 120.917 16.8209 121.593 17.208C122.464 17.7034 123.327 18.2375 124.19 18.7871C124.369 18.9032 124.556 19.0271 124.735 19.1432C125.38 19.5612 126.018 19.9947 126.655 20.4437C126.904 20.6217 127.161 20.7997 127.41 20.9778C128.047 21.4345 128.685 21.9067 129.315 22.3944C129.501 22.5414 129.696 22.6808 129.883 22.8278C130.699 23.4626 131.508 24.1206 132.309 24.8018C132.503 24.9643 132.69 25.1346 132.884 25.3049C133.498 25.8391 134.121 26.3732 134.727 26.9305C135.007 27.186 135.279 27.4414 135.559 27.6969C136.096 28.1923 136.624 28.6954 137.153 29.2141C137.425 29.4773 137.698 29.7482 137.97 30.0191C138.545 30.592 139.113 31.1803 139.68 31.7763C139.875 31.9776 140.069 32.1788 140.264 32.3878C141.01 33.1851 141.749 33.9979 142.472 34.8262C142.635 35.012 142.791 35.1978 142.954 35.3836C143.522 36.0415 144.082 36.6995 144.642 37.3807C144.883 37.6749 145.132 37.9767 145.373 38.2786C145.839 38.8592 146.298 39.4475 146.757 40.0358C147.037 40.3996 147.324 40.7712 147.604 41.1428C147.915 41.553 148.211 41.971 148.514 42.3813C149.128 43.2251 149.743 44.0766 150.334 44.9435C150.637 45.3848 150.94 45.8183 151.236 46.2595C151.586 46.7781 151.928 47.3045 152.262 47.8309C152.612 48.3727 152.954 48.9069 153.296 49.4565C153.631 49.9906 153.95 50.5247 154.276 51.0666C154.595 51.593 154.906 52.1271 155.217 52.6612C155.629 53.3734 156.026 54.0933 156.422 54.8132C156.71 55.3318 156.998 55.8504 157.27 56.3691C157.449 56.7097 157.628 57.058 157.807 57.4064C158.281 58.3353 158.755 59.2642 159.206 60.2085C159.595 61.0213 159.968 61.8264 160.326 62.6392C160.38 62.7553 160.435 62.8714 160.489 62.9953C160.855 63.8158 161.197 64.6286 161.539 65.4414C161.632 65.6736 161.726 65.8981 161.819 66.1303C162.06 66.7186 162.293 67.3069 162.511 67.8952C162.612 68.1662 162.721 68.4371 162.814 68.708C163.032 69.2886 163.234 69.8614 163.436 70.4342C163.522 70.6742 163.608 70.9142 163.693 71.1541C163.965 71.9592 164.23 72.7643 164.479 73.5616C164.486 73.5848 164.494 73.6158 164.502 73.639C164.743 74.4131 164.961 75.1871 165.171 75.9535C165.241 76.2167 165.311 76.4721 165.373 76.7276C165.513 77.2617 165.653 77.7958 165.785 78.3299C165.855 78.6241 165.925 78.9183 165.995 79.2201C166.112 79.7156 166.22 80.211 166.321 80.7064C166.384 81.0005 166.446 81.2947 166.5 81.5889C166.601 82.0998 166.695 82.6029 166.78 83.1138C166.827 83.377 166.874 83.6402 166.912 83.8956C167.014 84.5149 167.107 85.1342 167.185 85.7457C167.2 85.885 167.223 86.0244 167.247 86.156C167.34 86.9068 167.426 87.65 167.496 88.3853C167.519 88.6021 167.527 88.8188 167.55 89.0356C167.597 89.562 167.636 90.0806 167.667 90.5992C167.682 90.8857 167.69 91.1643 167.706 91.4507C167.729 91.8997 167.744 92.3487 167.752 92.7976C167.752 93.1073 167.76 93.4169 167.768 93.7265C167.768 94.1446 167.768 94.5626 167.768 94.9728C167.768 95.3057 167.752 95.6308 167.744 95.9637C167.729 96.3585 167.713 96.7455 167.69 97.1325C167.675 97.4809 167.651 97.837 167.628 98.1853C167.589 98.7659 167.542 99.3387 167.48 99.9115C167.379 100.864 167.239 101.8 167.091 102.721C167.068 102.884 167.045 103.047 167.021 103.209C166.858 104.177 166.664 105.129 166.446 106.073C166.36 106.429 166.267 106.77 166.174 107.118C166.003 107.776 165.839 108.426 165.645 109.069C165.606 109.201 165.567 109.324 165.52 109.456C165.241 110.362 164.937 111.26 164.603 112.134C164.199 113.203 163.763 114.232 163.312 115.262C163.172 115.571 163.032 115.873 162.892 116.183C162.566 116.903 162.231 117.607 161.881 118.312C161.71 118.66 161.539 119.016 161.36 119.357C160.987 120.076 160.614 120.789 160.225 121.501C160.085 121.764 159.945 122.035 159.797 122.29C159.261 123.25 158.724 124.195 158.164 125.124C158.055 125.302 157.954 125.472 157.845 125.65C157.379 126.424 156.912 127.198 156.438 127.964C156.228 128.305 156.018 128.638 155.808 128.979C155.412 129.613 155.015 130.248 154.611 130.875C154.284 131.386 153.965 131.897 153.639 132.408C153.234 133.042 152.838 133.669 152.433 134.304C151.835 135.241 151.244 136.185 150.66 137.13C149.346 139.258 148.024 141.372 146.687 143.469C146.64 143.547 146.586 143.624 146.531 143.709C144.789 146.442 143.024 149.151 141.251 151.853C140.792 152.549 140.334 153.246 139.875 153.943C138.117 156.606 136.352 159.261 134.572 161.9C131.757 166.088 128.918 170.253 126.049 174.386C125.738 174.835 125.396 175.199 125.038 175.47C124.921 175.563 124.797 175.641 124.673 175.71L143.522 164.803C144.012 164.517 144.478 164.076 144.898 163.472C147.768 159.338 150.598 155.174 153.421 150.986C155.194 148.346 156.959 145.699 158.716 143.036C159.175 142.339 159.642 141.635 160.101 140.93C161.866 138.237 163.631 135.535 165.365 132.81C165.412 132.741 165.458 132.671 165.497 132.601C165.505 132.586 165.513 132.57 165.528 132.555C166.866 130.457 168.188 128.344 169.502 126.215C170.085 125.271 170.676 124.334 171.275 123.39C171.671 122.763 172.076 122.128 172.472 121.493C172.799 120.982 173.118 120.471 173.444 119.96C173.841 119.333 174.238 118.699 174.642 118.064C174.852 117.723 175.062 117.39 175.272 117.05C175.746 116.283 176.213 115.509 176.679 114.735C176.788 114.557 176.889 114.387 176.998 114.209C177.55 113.272 178.095 112.328 178.631 111.368C178.779 111.105 178.919 110.842 179.059 110.578C179.448 109.874 179.821 109.162 180.194 108.434C180.373 108.086 180.544 107.738 180.715 107.389C180.878 107.056 181.057 106.723 181.213 106.391C181.392 106.019 181.555 105.64 181.726 105.268C181.866 104.959 182.006 104.657 182.146 104.347C182.597 103.325 183.032 102.288 183.437 101.22C183.483 101.096 183.53 100.972 183.577 100.848C183.857 100.09 184.113 99.3232 184.354 98.5414C184.393 98.4098 184.432 98.2859 184.471 98.1543C184.51 98.0227 184.556 97.8989 184.595 97.7673C184.743 97.2564 184.868 96.7223 185 96.2036C185.085 95.8553 185.186 95.5147 185.272 95.1586C185.287 95.1044 185.303 95.0502 185.319 94.9883C185.513 94.1446 185.684 93.2853 185.832 92.4183C185.832 92.3796 185.84 92.3332 185.847 92.2945C185.878 92.1319 185.894 91.9694 185.917 91.8068C186.011 91.203 186.112 90.607 186.189 89.9954C186.228 89.6626 186.267 89.3297 186.306 88.9969C186.353 88.5866 186.384 88.1841 186.423 87.7661C186.438 87.6035 186.438 87.4332 186.454 87.2707C186.477 86.9223 186.5 86.574 186.516 86.2179C186.524 86.0089 186.547 85.8076 186.555 85.6064L186.508 85.5522Z" fill="#1F3A57"/>
<path d="M122.791 16.5849C137.352 25.0298 151.334 41.1364 160.115 59.6469C167.075 74.3034 169.521 87.7656 168.31 99.3899C167.847 103.74 166.89 107.835 165.455 111.627C161.913 121.026 156.488 128.742 151.627 136.667C146.457 145.12 141.094 153.332 135.662 161.474C132.869 165.67 130.052 169.842 127.205 173.983C125.94 175.821 124.273 176.146 122.614 175.177C120.955 174.215 119.304 171.982 118.038 168.702C112.397 154.006 106.865 139.304 101.456 124.601C97.8831 114.884 94.3953 105.268 91.1081 95.5746C87.8056 85.8579 83.9243 76.1335 80.9072 66.4168C76.0073 50.6825 74.3869 36.2819 78.9858 25.5959C86.0308 9.21794 103.747 5.5422 122.791 16.5849Z" fill="#3D6698"/>
<path d="M141.499 98.921C151.435 93.1529 151.409 74.5837 141.44 57.4454C131.471 40.3071 115.334 31.0897 105.397 36.8577C95.4598 42.6258 95.486 61.1951 105.455 78.3334C115.424 95.4717 131.562 104.689 141.499 98.921Z" fill="#FDFDFD"/>
</svg>
