<svg width="94" height="94" viewBox="0 0 94 94" fill="none" xmlns="http://www.w3.org/2000/svg">
<path d="M46.5403 40.5403V68.5403" stroke="#FDFDFD" stroke-width="4" stroke-linecap="square" stroke-linejoin="round"/>
<path d="M26.5403 32.5403L26.5403 62.5403H40.5403C42.1316 62.5403 43.6578 63.1725 44.783 64.2977C45.9082 65.4229 46.5403 66.949 46.5403 68.5403C46.5403 66.949 47.1725 65.4229 48.2977 64.2977C49.4229 63.1725 50.949 62.5403 52.5403 62.5403H66.5403V32.5403H54.5403C52.4186 32.5403 50.3838 33.3832 48.8835 34.8835C47.3832 36.3838 46.5403 38.4186 46.5403 40.5403C46.5403 38.4186 45.6975 36.3838 44.1972 34.8835C42.6969 33.3832 40.6621 32.5403 38.5403 32.5403H26.5403Z" stroke="#FDFDFD" stroke-width="4" stroke-linecap="square"/>
<path d="M56.3754 83.2455C65.2804 80.8594 73.0143 75.3174 78.1362 67.652C83.258 59.9866 85.4186 50.7206 84.2152 41.5803C83.0119 32.4401 78.5268 24.049 71.5955 17.9704C64.6642 11.8918 55.7594 8.54031 46.5403 8.54031C37.3212 8.54031 28.4165 11.8918 21.4852 17.9704C14.5539 24.049 10.0687 32.4401 8.86541 41.5803C7.66207 50.7205 9.8226 59.9866 14.9445 67.652C20.0663 75.3174 27.8002 80.8594 36.7052 83.2455" stroke="#FDFDFD" stroke-width="4" stroke-linecap="square"/>
</svg>
