<svg width="101" height="146" viewBox="0 0 101 146" fill="none" xmlns="http://www.w3.org/2000/svg">
<path d="M97.7759 67.0445C67.4602 53.4518 57.6538 39.0324 49.9475 5.27107C49.7019 4.18733 49.2231 3.5016 48.6766 3.00565C46.8897 -0.343545 39.2631 -2.48032 39.6069 5.47325C41.1543 41.5 28.2225 62.0298 2.64732 76.4001C-1.45454 78.7023 -0.877403 86.264 4.99292 86.7233C17.452 87.7029 29.2847 94.7747 37.7279 106.506C41.4245 111.643 44.2923 117.735 46.2941 124.189C47.3073 127.452 48.1546 130.851 48.7011 134.292C49.1924 137.396 49.2721 140.267 50.6905 142.484C51.0835 144.48 52.3302 146.17 54.4425 145.986C55.0627 145.931 55.6889 145.876 56.3091 145.821C57.8258 145.686 59.6742 143.99 59.7847 141.902C60.5646 126.999 64.5251 112.574 70.4937 99.4097C75.0868 89.2825 87.11 81.3045 96.2532 78.6104C103.904 76.3511 100.687 68.3487 97.7759 67.0445Z" fill="#F2E297"/>
</svg>
