<svg width="280" height="262" viewBox="0 0 280 262" fill="none" xmlns="http://www.w3.org/2000/svg">
<path d="M269.262 251.514L65.8065 261.58L24.5209 235.141C25.2849 234.129 26.2039 232.724 26.6886 231.259C28.7125 225.034 31.2519 212.666 26.7194 197.499C26.2235 195.847 25.6454 194.154 25.4184 194.133L196.477 186.029L206.79 189.343L250.668 203.456L272.988 210.642C272.988 210.642 289.744 232.146 269.262 251.514Z" fill="#E7979F"/>
<path d="M64.7409 255.743L61.6271 253.736L57.6409 251.175L26.6868 231.261C28.7125 225.032 31.2547 212.66 26.7148 197.502C26.7148 197.502 26.7241 197.511 26.7428 197.521L39.9219 204.369L67.3709 220.463C67.3709 220.463 79.2144 242.77 64.7409 255.743Z" fill="#FDF9F7"/>
<path d="M64.7409 255.743L61.6271 253.736C69.7787 228.982 27.9345 198.385 26.7428 197.522L39.9219 204.37L67.3709 220.464C67.3709 220.464 79.2144 242.77 64.7409 255.743Z" fill="#EACDB8"/>
<mask id="mask0_111_2416" style="mask-type:luminance" maskUnits="userSpaceOnUse" x="26" y="197" width="46" height="59">
<path d="M64.7409 255.743L26.6858 231.261C28.7116 225.032 31.2538 212.66 26.7139 197.502L67.37 220.463C67.3709 220.463 79.2144 242.77 64.7409 255.743Z" fill="white"/>
</mask>
<g mask="url(#mask0_111_2416)">
<path d="M73.0867 249.454C71.471 248.352 69.7245 247.469 68.0172 246.518C66.3436 245.586 64.6755 244.643 63.014 243.688C59.6275 241.743 56.2615 239.762 52.9254 237.73C46.3167 233.707 39.8154 229.506 33.4309 225.135C29.8137 222.658 26.2263 220.14 22.6791 217.564C22.1337 217.168 21.6247 218.081 22.1617 218.476C28.4239 223.088 34.8131 227.521 41.3247 231.774C47.8036 236.005 54.3954 240.063 61.091 243.94C62.972 245.03 64.8642 246.102 66.7629 247.16C68.6934 248.236 70.6033 249.383 72.6487 250.224C73.1689 250.439 73.5687 249.782 73.0867 249.454Z" fill="#34322D"/>
<path d="M78.4925 245.41C71.4495 241.43 64.3804 237.497 57.3215 233.545C50.2963 229.613 43.2626 225.696 36.2318 221.775C32.2391 219.547 28.2605 217.289 24.2248 215.14C23.7635 214.894 23.3712 215.58 23.8232 215.848C30.7812 219.97 37.8756 223.872 44.912 227.858C51.9167 231.825 58.9261 235.786 65.9363 239.743C69.2304 241.603 72.5254 243.462 75.8251 245.314C75.8615 245.37 75.9073 245.421 75.9727 245.46C76.5947 245.826 77.2307 246.178 77.8873 246.477C78.5924 246.796 79.192 245.805 78.4925 245.41Z" fill="#34322D"/>
<path d="M75.2759 238.09C73.889 236.915 72.0753 236.187 70.4698 235.351C68.7653 234.464 67.0655 233.569 65.3685 232.668C62.0091 230.883 58.6636 229.069 55.3341 227.229C48.6749 223.548 42.0775 219.757 35.5444 215.857C31.8581 213.657 28.1876 211.428 24.5396 209.165C24.0623 208.869 23.6355 209.624 24.109 209.924C30.5393 213.994 37.0378 217.954 43.6035 221.801C50.1683 225.647 56.7966 229.385 63.4857 233.011C65.3396 234.016 67.1981 235.014 69.0623 236.002C70.0271 236.514 70.99 237.031 71.9641 237.524C72.9121 238.004 73.8358 238.535 74.8725 238.796C75.2535 238.892 75.6075 238.371 75.2759 238.09Z" fill="#34322D"/>
<path d="M75.7439 234.343C72.3695 232.241 68.8214 230.383 65.3629 228.424C61.897 226.46 58.4311 224.497 54.9652 222.534C48.0669 218.627 41.1762 214.708 34.2705 210.814C30.3591 208.608 26.4467 206.402 22.5353 204.196C22.0796 203.939 21.6789 204.64 22.1337 204.904C29.031 208.891 35.9301 212.875 42.8349 216.849C49.706 220.803 56.5772 224.758 63.4483 228.712C65.3778 229.823 67.3074 230.933 69.236 232.043C70.5987 232.827 71.9595 233.624 73.3324 234.398C73.3548 234.47 73.4062 234.533 73.4967 234.571C74.0674 234.813 74.5998 235.105 75.1433 235.403C75.8307 235.781 76.4098 234.758 75.7439 234.343Z" fill="#34322D"/>
<path d="M76.732 230.193C76.011 229.5 75.1237 229.065 74.2617 228.57C73.3809 228.065 72.5011 227.56 71.6204 227.054C69.8935 226.063 68.1685 225.069 66.4426 224.076C62.9234 222.051 59.4033 220.026 55.8842 218.003C48.9131 213.992 41.9448 209.976 34.9747 205.963C31.0166 203.684 27.0501 201.417 23.0835 199.153C22.5886 198.87 22.1533 199.634 22.6455 199.925C29.61 204.026 36.5876 208.103 43.5681 212.178C50.5139 216.234 57.4588 220.291 64.4028 224.35L70.268 227.777C71.2459 228.349 72.2219 228.921 73.1997 229.494C74.1823 230.069 75.1349 230.741 76.2332 231.064C76.7264 231.21 77.1009 230.547 76.732 230.193Z" fill="#34322D"/>
<path d="M71.8726 255.015C70.3848 253.847 68.7466 252.852 67.1692 251.81C65.5721 250.755 63.9676 249.709 62.3584 248.672C59.2053 246.639 56.0457 244.617 52.8777 242.607C46.4773 238.547 40.0452 234.535 33.5672 230.601C29.9033 228.375 26.216 226.19 22.5241 224.013C22.0674 223.744 21.6873 224.456 22.1337 224.734C34.9429 232.718 47.7017 240.787 60.3345 249.047C62.1295 250.221 63.9199 251.401 65.7187 252.57C67.5073 253.732 69.264 255.004 71.1338 256.031C71.739 256.364 72.4488 255.468 71.8726 255.015Z" fill="#34322D"/>
</g>
<path d="M271.849 219.001C270.753 216.388 269.293 213.984 267.493 211.796C267.315 211.58 267.072 211.537 266.837 211.585C266.726 211.526 266.6 211.486 266.441 211.488C260.446 211.582 254.464 212.11 248.472 212.338C242.482 212.567 230.405 212.795 224.415 213.024C212.435 213.48 200.453 213.918 188.474 214.375C164.635 215.284 140.797 216.192 116.958 217.099C103.51 217.612 90.0624 218.13 76.6152 218.652C75.5832 218.692 75.4786 220.114 76.2809 220.406C81.0758 229.047 81.568 239.777 77.9526 248.937C77.4371 250.245 76.8226 251.517 76.1342 252.742C75.4384 253.982 74.7725 255.231 74.0861 256.476C73.8012 256.993 74.4923 257.537 74.9182 257.109C75.8597 256.166 76.675 255.2 77.354 254.048C78.0143 252.927 78.5915 251.752 79.1033 250.557C80.1362 248.144 80.9068 245.629 81.3803 243.047C82.3245 237.895 82.1751 232.521 80.8246 227.454C80.1727 225.007 79.2247 222.641 78.032 220.406C101.525 219.462 125.016 218.502 148.508 217.543C172.346 216.57 196.183 215.577 220.022 214.604C226.745 214.329 239.555 214.056 246.279 213.781C252.999 213.506 259.741 213.548 266.451 213.123C266.469 213.122 266.482 213.111 266.5 213.109C269.224 216.832 271.155 221.096 272.013 225.636C272.905 230.355 272.532 235.242 271.069 239.808C270.234 242.412 269.066 244.89 267.634 247.22C267.155 247.999 268.328 248.611 268.845 247.907C274.9 239.666 275.759 228.328 271.849 219.001Z" fill="#FDF9F6"/>
<path d="M266.784 224.95C266.434 222.934 265.848 220.98 265.074 219.087C265.029 218.978 264.967 218.899 264.896 218.84C264.9 218.563 264.721 218.275 264.36 218.252C259.221 217.919 253.997 218.027 248.866 218.419C248.251 218.466 248.023 219.091 248.18 219.53C248.128 219.648 248.106 219.786 248.159 219.95C249.481 224.046 250.044 228.345 249.834 232.644C249.622 236.995 248.53 241.105 246.821 245.097C246.766 245.225 246.754 245.348 246.763 245.466C246.504 245.966 246.732 246.731 247.472 246.742C249.915 246.78 252.37 246.586 254.811 246.46C256.013 246.398 257.216 246.349 258.42 246.316C259.66 246.283 260.902 246.344 262.14 246.267C262.622 246.237 262.876 245.88 262.929 245.504C264.879 242.607 266.064 239.101 266.707 235.693C267.376 232.153 267.401 228.499 266.784 224.95ZM264.299 239.739C263.67 241.449 262.82 243.037 261.913 244.608C260.745 244.717 259.589 244.911 258.42 245.001C257.219 245.094 256.015 245.147 254.811 245.161C252.689 245.186 250.571 245.088 248.452 245.056C251.023 238.947 251.754 231.925 250.794 225.409C250.518 223.541 250.087 221.702 249.522 219.901C251.88 219.701 254.244 219.542 256.609 219.441C259.024 219.338 261.43 219.358 263.844 219.366C263.822 219.491 263.823 219.624 263.882 219.765C266.555 226.063 266.656 233.328 264.299 239.739Z" fill="#FDF9F6"/>
<path d="M220.819 231.806C220.468 231.56 219.93 231.784 219.744 232.13C219.521 232.543 219.714 232.958 220.067 233.205C221.677 234.333 222.513 236.398 222.318 238.332C222.117 240.339 220.671 242.02 218.8 242.708C216.839 243.428 214.735 243.047 213.224 241.578C213.024 241.384 212.84 241.169 212.668 240.944C213.2 240.664 213.717 240.356 214.208 240.009C215.319 239.224 216.292 238.197 216.773 236.903C217.222 235.698 217.055 234.259 216.009 233.407C215.05 232.626 213.684 232.505 212.559 232.979C211.258 233.529 210.433 234.799 210.106 236.135C209.771 237.507 209.951 238.948 210.492 240.245C206.495 241.74 201.676 241.313 198.462 238.343C198.757 237.985 199.046 237.622 199.319 237.247C200.198 236.038 200.971 234.758 201.683 233.444C202.415 232.091 203.125 230.668 203.381 229.138C203.796 226.669 202.702 223.459 199.898 223.012C197.102 222.567 194.931 225.068 194.098 227.464C193.289 229.792 193.438 232.422 194.286 234.717C194.796 236.093 195.543 237.365 196.485 238.473C195.072 239.94 193.404 241.165 191.461 241.83C189.264 242.582 186.765 242.641 184.695 241.483C183.935 241.058 183.243 240.471 182.679 239.781C183.044 239.472 183.393 239.147 183.711 238.793C184.541 237.872 185.3 236.762 185.603 235.547C185.928 234.247 185.583 232.74 184.247 232.177C182.962 231.635 181.516 232.19 180.723 233.282C179.946 234.351 179.744 235.775 179.923 237.062C180.035 237.863 180.302 238.626 180.668 239.34C177.584 241.294 173.524 241.592 170.359 239.693C171.691 237.793 172.766 235.722 173.471 233.504C174.203 231.204 174.681 228.589 173.863 226.244C173.504 225.216 172.896 224.266 171.952 223.688C170.872 223.028 169.538 223.046 168.408 223.559C166.073 224.618 164.793 227.311 164.464 229.736C164.141 232.123 164.583 234.554 165.667 236.701C166.312 237.979 167.213 239.15 168.303 240.093C168.279 240.122 168.258 240.153 168.235 240.182C166.687 242.047 164.885 243.779 162.846 245.098C160.855 246.386 158.475 247.249 156.089 246.715C154.734 246.412 153.532 245.602 152.837 244.462C153.134 244.143 153.425 243.818 153.706 243.483C154.462 242.582 155.255 241.553 155.242 240.313C155.229 239.046 153.983 238.28 152.832 238.795C151.632 239.332 151.036 240.709 150.917 241.948C150.844 242.704 150.939 243.431 151.158 244.109C151.088 244.174 151.016 244.239 150.947 244.303C150.064 245.113 149.113 245.852 148.071 246.451C146.145 247.559 143.818 248.107 141.705 247.177C139.83 246.351 138.456 244.662 137.7 242.789C137.645 242.652 137.603 242.511 137.554 242.372C138.728 240.983 139.77 239.482 140.63 237.884C141.283 236.667 141.829 235.395 142.275 234.087C142.733 232.749 143.168 231.314 143.241 229.895C143.31 228.55 142.788 227.117 141.514 226.493C140.288 225.893 139.062 226.445 138.355 227.529C138.02 228.041 137.815 228.63 137.617 229.204C137.338 230.009 137.072 230.819 136.819 231.632C136.333 233.191 135.912 234.776 135.695 236.397C135.432 238.346 135.482 240.306 135.981 242.17C135.444 242.751 134.89 243.316 134.3 243.844C133.443 244.61 132.53 245.324 131.559 245.942C130.482 246.627 129.248 247.24 127.943 247.244C125.782 247.25 124.52 245.227 124.409 243.26C124.271 240.828 125.687 238.577 126.887 236.573C127.303 235.878 126.221 235.314 125.788 235.981C124.222 238.395 122.603 241.084 123.082 244.083C123.492 246.656 125.469 248.832 128.221 248.65C131.095 248.461 133.672 246.303 135.671 244.4C135.943 244.141 136.195 243.861 136.456 243.589C136.606 243.952 136.772 244.31 136.965 244.661C138.175 246.867 140.239 248.702 142.779 249.119C145.654 249.593 148.354 248.365 150.558 246.599C150.998 246.247 151.415 245.871 151.821 245.485C152.537 246.561 153.611 247.409 154.869 247.875C157.635 248.9 160.637 248.14 163.086 246.668C165.513 245.207 167.678 243.154 169.433 240.94C169.809 241.182 170.197 241.407 170.604 241.593C172.808 242.601 175.294 242.779 177.65 242.264C179.008 241.967 180.324 241.415 181.502 240.655C182.29 241.648 183.307 242.465 184.445 243.008C187.018 244.236 190.037 243.981 192.609 242.893C194.466 242.109 196.06 240.909 197.44 239.482C197.858 239.87 198.301 240.233 198.776 240.559C201.015 242.097 203.826 242.748 206.519 242.618C208.121 242.54 209.719 242.193 211.22 241.604C211.615 242.177 212.084 242.696 212.624 243.128C214.693 244.784 217.394 245.053 219.798 243.979C222.16 242.923 223.755 240.672 223.887 238.084C224.017 235.63 222.823 233.211 220.819 231.806ZM137.21 235.509C137.46 234.112 137.833 232.742 138.247 231.387C138.579 230.299 138.823 229.007 139.468 228.049C140.14 227.051 141.385 227.383 141.875 228.39C142.427 229.528 141.986 230.956 141.664 232.097C140.768 235.274 139.202 238.248 137.139 240.825C136.811 239.08 136.897 237.27 137.21 235.509ZM153.508 239.813C154.586 239.583 153.715 241.349 153.478 241.68C153.136 242.157 152.727 242.608 152.297 243.037C152.262 242.848 152.226 242.659 152.217 242.459C152.18 241.607 152.483 240.031 153.508 239.813ZM165.975 229.285C166.367 227.394 167.497 225.059 169.552 224.566C171.571 224.082 172.65 226.092 172.91 227.766C173.238 229.881 172.635 232.119 171.871 234.079C171.207 235.785 170.304 237.397 169.234 238.885C166.556 236.607 165.269 232.695 165.975 229.285ZM182.306 233.7C183.112 233.112 184.226 233.442 184.226 234.519C184.226 235.505 183.616 236.478 183.024 237.227C182.67 237.675 182.272 238.086 181.844 238.463C181.559 237.857 181.368 237.212 181.326 236.539C181.265 235.56 181.454 234.321 182.306 233.7ZM195.764 227.175C196.573 225.472 198.678 223.435 200.636 224.802C202.65 226.206 202.223 229.021 201.38 230.948C200.396 233.198 199.063 235.416 197.503 237.321C195.232 234.559 194.194 230.481 195.764 227.175ZM211.802 235.885C212.183 234.988 212.914 234.247 213.936 234.234C214.818 234.223 215.561 234.83 215.49 235.756C215.412 236.783 214.608 237.732 213.853 238.367C213.269 238.857 212.594 239.273 211.9 239.626C211.4 238.437 211.29 237.088 211.802 235.885Z" fill="#FDF9F6"/>
<path d="M77.3867 219.437C76.1492 218.527 74.6296 217.929 73.2614 217.236C71.9389 216.566 70.6183 215.895 69.2949 215.228C66.578 213.859 63.8247 212.56 61.133 211.142C55.8253 208.345 50.6036 205.389 45.3594 202.476C42.3623 200.812 39.3736 199.134 36.3691 197.484C35.4725 196.993 34.673 198.389 35.5818 198.867C40.9642 201.696 46.3727 204.477 51.7776 207.264C57.1852 210.053 62.4919 212.992 67.7529 216.048C69.2351 216.909 70.7294 217.748 72.2191 218.596C73.6882 219.431 75.1517 220.435 76.7423 221.018C77.1439 221.166 77.6043 220.872 77.7528 220.508C77.9246 220.083 77.7379 219.696 77.3867 219.437Z" fill="#FDF9F6"/>
<path d="M102.711 230.766C102.378 228.738 101.926 226.657 101.145 224.747C101.218 224.632 101.264 224.503 101.261 224.372C101.249 223.9 100.631 223.455 100.206 223.794C100.013 223.948 99.5308 223.898 99.2992 223.906C98.9854 223.917 98.6735 223.924 98.3587 223.918C97.7311 223.907 97.1044 223.898 96.4768 223.894C95.2225 223.887 93.97 223.901 92.7157 223.926C92.5794 223.928 92.4729 223.972 92.3814 224.03C92.0013 224.126 91.6818 224.47 91.8219 224.955C93.8514 231.983 93.9887 239.484 92.1974 246.578C91.9536 247.544 91.6753 248.501 91.3624 249.447C91.0318 250.446 90.5387 251.431 90.3724 252.47C90.3117 252.848 90.5163 253.097 90.7815 253.174C90.8824 253.419 91.1028 253.61 91.4474 253.599C92.7484 253.562 94.0476 253.503 95.3486 253.45C95.9995 253.423 96.6505 253.445 97.3015 253.46C97.6003 253.467 97.9048 253.494 98.2027 253.479C98.5707 253.461 98.8929 253.31 99.2432 253.215C99.4888 253.147 99.6149 252.944 99.6373 252.728C99.74 252.725 99.8437 252.703 99.9408 252.65C100.702 252.234 100.932 250.961 101.197 250.191C101.496 249.322 101.764 248.442 101.996 247.552C102.476 245.705 102.817 243.822 103.02 241.924C103.416 238.209 103.318 234.454 102.711 230.766ZM100.676 246.404C100.424 247.394 100.133 248.376 99.8063 249.344C99.6429 249.827 99.4711 250.308 99.2861 250.783C99.1199 251.209 98.9368 251.601 98.9761 252.041C98.7089 251.97 98.4456 251.892 98.1607 251.892C97.8628 251.891 97.5592 251.936 97.2613 251.958C96.6122 252.008 95.9631 252.064 95.3121 252.071C94.1961 252.084 93.0818 252.098 91.9658 252.119C92.2441 251.527 92.4411 250.887 92.6494 250.275C92.9474 249.398 93.2154 248.509 93.4536 247.613C93.9392 245.787 94.3025 243.928 94.5407 242.054C95.0161 238.31 95.0562 234.514 94.5668 230.769C94.3231 228.901 93.9542 227.053 93.4713 225.234C94.4837 225.197 95.4961 225.159 96.5085 225.101C97.1352 225.064 97.761 225.022 98.3867 224.977C98.6744 224.957 98.9602 224.946 99.2478 224.941C99.4057 224.938 99.6737 224.909 99.9053 224.922C100.364 226.66 100.882 228.371 101.218 230.141C101.562 231.959 101.763 233.802 101.837 235.65C101.981 239.265 101.57 242.902 100.676 246.404Z" fill="#FDF9F6"/>
<path d="M108.652 230.47C108.309 228.426 107.779 226.417 107.087 224.465C106.744 223.498 105.19 223.907 105.541 224.87C107.964 231.507 108.398 238.784 106.651 245.639C106.408 246.594 106.113 247.535 105.782 248.463C105.436 249.43 104.964 250.334 104.594 251.291C104.23 252.229 105.798 252.87 106.237 251.959C106.634 251.135 106.889 250.222 107.177 249.355C107.466 248.484 107.715 247.603 107.943 246.715C108.397 244.942 108.725 243.142 108.937 241.323C109.357 237.722 109.252 234.045 108.652 230.47Z" fill="#FDF9F6"/>
<path d="M244.08 225.404C243.903 223.376 243.57 221.362 243.078 219.386C242.821 218.348 241.226 218.77 241.476 219.806C243.08 226.461 242.807 233.515 240.714 240.033C240.417 240.962 240.085 241.882 239.71 242.782C239.355 243.635 238.695 244.582 238.647 245.51C238.61 246.208 239.459 246.421 239.916 246.036C240.544 245.508 240.836 244.458 241.149 243.715C241.506 242.867 241.837 242.009 242.135 241.139C242.705 239.472 243.158 237.766 243.491 236.037C244.164 232.546 244.387 228.948 244.08 225.404Z" fill="#FDF9F6"/>
<path d="M244.967 201.622L234.687 214.149L54.8325 210.672L206.791 189.343L244.967 201.622Z" fill="#34322D"/>
<path d="M54.8279 210.67L231.673 206.406C231.673 206.406 240.817 189.484 231.867 172.435L214.779 162.029L68.2694 163.66L52.9973 176.304C52.9973 176.304 41.9383 191.931 54.8279 210.67Z" fill="#294A91"/>
<path d="M204.434 194.045C204.418 193.215 204.443 192.399 204.378 191.57C204.247 189.917 204.117 188.262 203.987 186.609C203.98 186.528 203.957 186.452 203.935 186.377C204.313 185.789 204.101 184.84 203.215 184.863C187.61 185.278 172.002 185.595 156.395 185.929C140.874 186.262 125.358 186.339 109.836 186.143C101.093 186.033 92.3543 185.806 83.6124 185.672C82.7747 185.659 82.4702 186.517 82.7205 187.101C82.5758 188.86 82.5487 190.623 82.5655 192.388C82.5739 193.265 82.5954 194.142 82.6168 195.019C82.628 195.472 82.6215 195.925 82.6281 196.378C82.6309 196.573 82.6411 196.752 82.6748 196.918C82.6495 197.346 82.9064 197.786 83.4696 197.815C87.4062 198.018 91.3549 197.939 95.2953 197.949C99.1535 197.958 103.011 197.922 106.868 197.93C114.707 197.944 122.545 198.047 130.385 198.085C145.977 198.161 161.562 198.048 177.149 197.675C185.925 197.465 194.705 197.274 203.476 196.903C203.588 196.899 203.681 196.865 203.773 196.831C204.037 196.879 204.329 196.762 204.43 196.47C204.683 195.731 204.448 194.815 204.434 194.045ZM156.655 196.552C141.057 196.833 125.467 197.059 109.868 196.883C105.499 196.833 101.135 196.654 96.7682 196.512C92.5635 196.376 88.356 196.115 84.1495 196.099C84.0944 195.695 84.0402 195.291 84.0131 194.882C83.958 194.037 83.944 193.195 83.9589 192.349C83.9879 190.77 84.142 189.196 84.3335 187.629C99.6765 187.681 115.021 187.371 130.365 187.343C145.879 187.314 161.392 187.369 176.906 187.233C185.38 187.159 193.853 187.011 202.325 186.845C202.441 188.429 202.558 190.012 202.673 191.596C202.735 192.434 202.87 193.245 202.99 194.076C203.037 194.395 203.05 194.744 203.07 195.094C187.599 195.696 172.137 196.273 156.655 196.552Z" fill="#FFEEA6"/>
<path d="M229.796 172.754C218.369 172.724 206.927 173.122 195.501 173.322L161.205 173.922C138.457 174.319 115.712 174.774 92.9651 175.229C86.5497 175.357 80.1344 175.479 73.7171 175.557C67.3093 175.634 60.8649 175.361 54.4673 175.712C53.5941 175.76 53.6137 177.062 54.4888 177.083C60.2 177.217 65.9233 176.783 71.6344 176.672C77.3502 176.561 83.0661 176.467 88.7828 176.4L123.081 176.004C145.831 175.742 168.578 175.405 191.327 175.085C197.743 174.996 204.159 174.905 210.576 174.815C216.989 174.726 223.413 174.732 229.824 174.513C230.945 174.474 230.919 172.757 229.796 172.754Z" fill="#FFEEA6"/>
<path d="M229.196 180.393C228.682 178.058 227.911 175.791 226.926 173.612C226.477 172.619 225.006 173.463 225.454 174.449C228.754 181.732 229.23 190.186 226.912 197.825C226.583 198.912 226.194 199.978 225.738 201.018C225.284 202.054 224.627 203.05 224.277 204.124C224.019 204.917 225.196 205.647 225.742 204.964C226.407 204.134 226.803 203.074 227.209 202.097C227.606 201.138 227.963 200.165 228.284 199.178C228.936 197.178 229.396 195.121 229.676 193.038C230.243 188.824 230.111 184.55 229.196 180.393Z" fill="#FFEEA6"/>
<path d="M220.849 180.912C220.604 179.824 220.314 178.745 219.988 177.678C219.669 176.635 219.4 175.354 218.769 174.451C218.367 173.874 217.167 173.965 217.268 174.847C217.406 176.038 217.968 177.206 218.301 178.359C218.644 179.542 218.933 180.739 219.186 181.945C219.693 184.357 220.003 186.803 220.111 189.266C220.22 191.727 220.134 194.196 219.851 196.643C219.71 197.867 219.509 199.085 219.263 200.293C219.14 200.896 219.003 201.496 218.851 202.093C218.7 202.685 218.487 203.267 218.469 203.88C218.444 204.716 219.604 204.981 220.007 204.286C220.491 203.451 220.622 202.351 220.829 201.419C221.037 200.48 221.218 199.535 221.368 198.585C221.68 196.608 221.876 194.613 221.939 192.615C222.064 188.699 221.713 184.733 220.849 180.912Z" fill="#FFEEA6"/>
<path d="M63.65 207.232C62.5554 205.451 61.4216 203.754 60.5511 201.842C59.7069 199.987 59.0671 198.039 58.6132 196.053C57.6914 192.024 57.5952 187.818 58.376 183.757C58.8196 181.451 59.5527 179.22 60.5306 177.086C60.9574 176.154 59.5602 175.351 59.1343 176.293C55.5647 184.195 55.4798 193.699 58.6935 201.731C59.6022 204.003 60.7351 206.358 62.321 208.243C62.9355 208.974 64.1431 208.033 63.65 207.232Z" fill="#FFEEA6"/>
<path d="M69.7329 205.799C67.7837 201.283 66.4183 196.588 66.2296 191.646C66.0438 186.788 66.7965 181.894 68.0873 177.218C68.3927 176.113 66.6639 175.656 66.3632 176.766C64.3178 184.308 64.6951 192.371 66.2567 199.972C66.7115 202.186 67.2663 204.362 68.0667 206.477C68.5272 207.699 70.2559 207.011 69.7329 205.799Z" fill="#FFEEA6"/>
<path d="M63.5734 168.386C60.0179 154.582 62.9907 142.933 62.9907 142.933H238.018C238.018 142.933 243.769 156.554 238.018 168.386H63.5734Z" fill="#B22632"/>
<path d="M234.464 151.671C234.378 150.938 234.264 150.209 234.171 149.477C234.086 148.807 234.047 147.943 233.675 147.375C233.602 147.264 233.505 147.189 233.402 147.136C233.266 146.99 233.078 146.885 232.825 146.872C227.443 146.583 222.035 146.704 216.647 146.7C211.255 146.697 205.862 146.688 200.469 146.69C189.794 146.695 179.119 146.691 168.444 146.721C157.659 146.751 146.873 146.79 136.088 146.938C125.414 147.083 114.738 147.276 104.062 147.295C99.5364 147.304 95.0058 147.334 90.4752 147.341C90.1744 147 89.5683 146.997 89.2125 147.34C82.0518 147.344 74.8902 147.281 67.7445 146.969C67.5941 146.963 67.4755 147.007 67.3718 147.069C67.087 147.016 66.7741 147.146 66.6443 147.54C66.4407 148.16 66.4425 148.853 66.3772 149.5C66.3127 150.146 66.2259 150.787 66.1493 151.432C65.9868 152.803 65.9149 154.19 65.9438 155.571C66.0008 158.267 66.436 160.973 67.3093 163.514C67.3914 163.753 67.5446 163.906 67.7221 163.992C67.8155 164.368 68.091 164.682 68.5682 164.667C73.9039 164.502 79.2303 164.323 84.5688 164.299C89.9017 164.274 95.2355 164.276 100.569 164.271C111.237 164.262 121.903 164.404 132.57 164.491C153.795 164.666 175.018 164.778 196.244 164.775C202.231 164.774 208.217 164.78 214.203 164.765C217.142 164.758 220.081 164.75 223.02 164.743C224.66 164.738 226.303 164.752 227.944 164.74C229.212 165.027 230.546 165.105 231.721 164.721C232.029 165.216 232.833 165.308 233.132 164.522C234.168 161.795 234.595 158.882 234.675 155.96C234.717 154.529 234.633 153.091 234.464 151.671ZM214.665 148.798C216.897 148.796 219.132 148.813 221.367 148.822C221.348 148.831 221.327 148.837 221.309 148.847C217.853 150.439 214.126 153.298 210.136 152.202C209.275 151.966 208.457 151.545 207.803 150.911C207.182 150.309 206.849 149.59 206.528 148.801C209.241 148.799 211.953 148.8 214.665 148.798ZM88.9005 148.189C88.6745 149.821 87.3931 151.092 85.9184 151.592C83.8973 152.279 81.6801 151.721 79.7785 150.898C77.9508 150.106 76.1445 149.063 74.2775 148.326C79.149 148.213 84.0243 148.185 88.9005 148.189ZM86.5292 163.132C83.3192 163.117 80.1129 163.06 76.9066 162.984C78.8175 162.379 80.6667 161.551 82.4216 160.494C84.1177 159.471 86.065 158.162 88.0768 159.04C88.8818 159.391 89.5963 160.021 90.0661 160.784C90.5303 161.539 90.6283 162.296 90.7432 163.135C89.3385 163.131 87.9339 163.138 86.5292 163.132ZM216.164 162.663C212.76 162.654 209.357 162.654 205.954 162.653C207.866 159.841 211.231 157.925 214.58 158.395C217.762 158.843 220.345 160.942 223.075 162.623C220.768 162.637 218.461 162.668 216.164 162.663ZM233.584 155.84C233.474 158.129 232.936 160.378 232.172 162.53C232.116 162.524 232.066 162.508 232.004 162.514C231.443 162.576 230.91 162.667 230.373 162.73C229.555 162.696 228.737 162.655 227.917 162.64C227.177 162.496 226.445 162.272 225.742 162.017C223.702 161.279 221.844 160.108 219.907 159.131C218.109 158.225 216.215 157.391 214.213 157.153C212.388 156.937 210.582 157.218 208.891 157.96C206.942 158.817 205.316 160.323 204.306 162.258C204.235 162.395 204.212 162.525 204.21 162.65C202.861 162.65 201.513 162.646 200.164 162.646C189.497 162.644 178.83 162.647 168.164 162.683C146.939 162.756 125.714 163.062 104.489 163.145C100.43 163.16 96.3722 163.145 92.3132 163.135C92.5159 161.633 91.7033 159.999 90.7423 158.947C89.6729 157.778 88.1244 157.008 86.5572 157.059C84.6631 157.121 83.0287 158.205 81.4447 159.17C79.7496 160.203 77.9554 161.028 76.0707 161.61C73.9226 162.272 71.7007 162.656 69.4611 162.723C69.3826 162.726 69.3201 162.75 69.2556 162.772C69.0782 162.766 68.9007 162.763 68.7233 162.757C67.9341 160.431 67.37 158.032 67.171 155.569C67.0702 154.313 67.0533 153.052 67.1337 151.794C67.1776 151.104 67.2448 150.431 67.4036 149.758C67.5016 149.343 67.6492 148.936 67.7669 148.524C67.7931 148.523 67.8192 148.523 67.8463 148.522C67.9602 148.736 68.1797 148.89 68.4748 148.822C73.1586 147.763 77.2494 151.715 81.5633 152.867C83.562 153.402 85.796 153.435 87.6481 152.38C89.204 151.493 90.3323 150.003 90.6087 148.186C93.7739 148.192 96.9391 148.201 100.101 148.2C110.778 148.198 121.452 148.354 132.127 148.502C153.586 148.799 175.047 148.792 196.508 148.802C199.398 148.803 202.288 148.8 205.177 148.799C205.164 148.856 205.149 148.913 205.153 148.976C205.261 150.726 206.588 152.204 207.992 153.04C209.652 154.028 211.568 154.162 213.421 153.813C217.63 153.024 221.029 149.968 225.186 148.98C225.509 148.904 225.838 148.861 226.166 148.804C227.859 148.787 229.549 148.746 231.238 148.678C231.639 148.726 232.043 148.768 232.44 148.844C232.532 148.862 232.616 148.855 232.695 148.84C232.784 149.096 232.882 149.353 232.96 149.599C233.162 150.244 233.305 150.9 233.403 151.571C233.607 152.986 233.652 154.414 233.584 155.84Z" fill="#34322D"/>
<path d="M74.2981 152.773C73.5985 152.328 72.6851 152.28 71.9613 152.687C71.5793 152.902 71.2244 153.268 71.0451 153.683C70.9153 153.982 70.8527 154.285 70.8555 154.588C70.7602 155.358 71.046 156.178 71.6157 156.68C71.9716 156.994 72.3666 157.206 72.8327 157.268C73.2903 157.329 73.7218 157.242 74.1356 157.029C74.9098 156.631 75.3917 155.777 75.4552 154.9C75.5178 154.027 74.9929 153.215 74.2981 152.773Z" fill="#34322D"/>
<path d="M229.618 155.177C229.48 154.694 229.179 154.293 228.764 154.034C228.552 153.902 228.32 153.824 228.081 153.788C228.061 153.782 228.045 153.767 228.024 153.763C227.576 153.681 227.161 153.741 226.75 153.943C226.398 154.115 226.075 154.44 225.897 154.8C225.507 155.592 225.654 156.609 226.273 157.234C226.909 157.879 227.899 157.978 228.67 157.545C229.457 157.103 229.873 156.071 229.618 155.177Z" fill="#34322D"/>
<path d="M195.7 153.154C192.583 152.804 189.46 152.879 186.328 152.879H176.956C170.708 152.879 164.461 152.975 158.212 153.058C145.717 153.223 133.222 153.247 120.726 153.236C113.697 153.23 106.667 153.143 99.6401 152.998C98.538 152.976 98.538 154.798 99.6401 154.775C112.133 154.519 124.632 154.483 137.126 154.538C149.623 154.593 162.117 154.852 174.614 154.893C178.084 154.904 181.556 154.893 185.026 154.893C188.587 154.893 192.157 155.016 195.7 154.618C196.605 154.517 196.606 153.256 195.7 153.154Z" fill="#34322D"/>
<path d="M197.427 158.267C191.023 157.881 184.566 158.105 178.151 158.11C171.813 158.115 165.475 158.162 159.136 158.209C146.373 158.303 133.608 158.392 120.846 158.349C113.637 158.324 106.433 158.128 99.2254 158.097C97.888 158.092 97.8871 160.261 99.2254 160.256C105.651 160.228 112.075 160.034 118.501 160.012C124.84 159.991 131.178 160.02 137.517 160.035C150.28 160.068 163.044 160.232 175.807 160.242C179.367 160.245 182.927 160.247 186.487 160.25C190.136 160.253 193.783 160.305 197.427 160.086C198.554 160.02 198.555 158.336 197.427 158.267Z" fill="#34322D"/>
<path d="M267.565 135.315L215.088 150.368L36.0488 141.634C24.4135 125.033 36.0488 107.802 36.0488 107.802L86.5955 92.3571L264.313 100.079C263.673 101.431 263.157 102.784 262.744 104.136C259.306 115.306 263.022 126.085 265.583 131.567C266.677 133.932 267.565 135.315 267.565 135.315Z" fill="#34322D"/>
<path d="M265.582 131.567L222.613 143.285L214.003 145.628C214.003 145.628 206.394 135.057 213.58 117.681L249.569 107.77L262.743 104.136C259.305 115.307 263.022 126.086 265.582 131.567Z" fill="#FDF9F7"/>
<path d="M262.743 104.137C251.355 111.354 226.416 121.363 224.1 138.341C223.871 140.022 222.944 141.593 222.613 143.286L214.003 145.629C214.003 145.629 206.394 135.058 213.58 117.682L262.743 104.137Z" fill="#EACDB8"/>
<mask id="mask1_111_2416" style="mask-type:luminance" maskUnits="userSpaceOnUse" x="210" y="104" width="56" height="42">
<path d="M265.582 131.567L214.003 145.629C214.003 145.629 206.396 135.054 213.581 117.679L262.743 104.136C259.305 115.307 263.022 126.086 265.582 131.567Z" fill="white"/>
</mask>
<g mask="url(#mask1_111_2416)">
<path d="M274.527 104.351C274.262 104.364 274 104.397 273.736 104.426C273.544 104.447 273.409 104.537 273.322 104.655C265.094 106.9 256.822 108.991 248.591 111.225C240.009 113.554 231.434 115.903 222.873 118.311C218.041 119.671 213.215 121.052 208.395 122.454C207.596 122.686 207.927 123.943 208.722 123.703C217.235 121.131 225.765 118.612 234.326 116.205C242.887 113.798 251.469 111.471 260.076 109.236C264.934 107.974 269.793 106.691 274.683 105.56C275.356 105.405 275.231 104.316 274.527 104.351Z" fill="#34322D"/>
<path d="M276.009 106.745L274.769 107C274.684 107.017 274.625 107.064 274.578 107.121C272.713 107.645 270.866 108.302 269.019 108.851C266.728 109.533 264.438 110.217 262.144 110.89C257.516 112.246 252.89 113.61 248.266 114.978C239.018 117.711 229.754 120.388 220.497 123.084C215.254 124.611 210.02 126.168 204.791 127.741C203.979 127.985 204.319 129.269 205.124 129.013C214.32 126.09 223.52 123.182 232.726 120.293C241.929 117.404 251.194 114.715 260.46 112.037C263.084 111.279 265.711 110.533 268.341 109.797C269.615 109.44 270.889 109.085 272.166 108.742C273.519 108.378 274.917 108.084 276.242 107.632C276.8 107.442 276.591 106.624 276.009 106.745Z" fill="#34322D"/>
<path d="M273.027 111.2C272.866 111.308 272.786 111.469 272.759 111.636C263.685 114.513 254.605 117.366 245.503 120.156C236.151 123.024 226.776 125.811 217.407 128.618C212.105 130.207 206.802 131.79 201.511 133.407C200.707 133.653 201.036 134.917 201.842 134.672C211.245 131.817 220.622 128.876 230.006 125.96C239.346 123.057 248.709 120.217 258.085 117.433C263.389 115.858 268.702 114.317 274.014 112.767C274.295 112.685 274.595 112.383 274.557 112.062C274.472 111.331 273.74 110.718 273.027 111.2Z" fill="#34322D"/>
<path d="M273.122 117.826C270.777 118.277 268.467 119.057 266.166 119.695C263.852 120.338 261.537 120.974 259.221 121.607C254.63 122.862 250.039 124.113 245.445 125.356C236.217 127.853 226.987 130.351 217.759 132.849C212.544 134.26 207.33 135.671 202.115 137.082C201.181 137.335 201.564 138.791 202.496 138.534C211.713 135.994 220.931 133.454 230.15 130.915C239.368 128.375 248.582 125.825 257.807 123.31C260.413 122.6 263.018 121.887 265.627 121.187C268.22 120.49 270.909 119.93 273.438 119.027C274.188 118.759 273.913 117.674 273.122 117.826Z" fill="#34322D"/>
<path d="M276.531 119.26C276.094 119.108 275.699 119.091 275.238 119.072C274.869 119.057 274.739 119.405 274.838 119.68C265.859 122.503 256.872 125.298 247.878 128.074C238.435 130.987 228.992 133.905 219.551 136.828C214.215 138.481 208.861 140.095 203.565 141.873C202.809 142.127 203.102 143.305 203.883 143.082C213.38 140.365 222.783 137.284 232.214 134.344C241.65 131.402 251.075 128.426 260.517 125.502C265.854 123.85 271.189 122.197 276.53 120.56C277.198 120.355 277.16 119.479 276.531 119.26Z" fill="#34322D"/>
<path d="M269.959 126.906C261.684 129.227 253.406 131.54 245.127 133.848C236.808 136.168 228.483 138.472 220.169 140.814C215.496 142.131 210.807 143.403 206.155 144.794C205.356 145.033 205.673 146.261 206.485 146.05C214.801 143.89 223.06 141.491 231.333 139.175C239.651 136.846 247.968 134.517 256.285 132.189C260.962 130.879 265.64 129.581 270.318 128.279C271.2 128.034 270.838 126.66 269.959 126.906Z" fill="#34322D"/>
</g>
<path d="M206.351 115.394C185.094 114.417 163.829 113.62 142.565 112.788C121.29 111.957 100.022 110.934 78.7643 109.778C72.7935 109.454 66.8245 109.116 60.8556 108.766C54.9044 108.417 48.9168 107.88 42.9526 107.909C41.9887 107.914 41.7926 109.476 42.7901 109.575C45.0119 109.794 47.245 109.921 49.4809 110.019C49.2867 110.405 49.127 110.807 48.9766 111.133C48.5087 112.147 48.0903 113.185 47.7157 114.237C46.9779 116.306 46.426 118.441 46.0645 120.607C45.3435 124.92 45.3202 129.33 46.0365 133.645C46.2373 134.852 46.4979 136.05 46.8192 137.231C46.9798 137.821 47.1554 138.408 47.3459 138.99C47.5448 139.595 47.7158 140.293 48.0595 140.831C48.6572 141.768 50.0497 141.07 49.7686 140.133C49.7733 140.132 49.777 140.132 49.7807 140.131C49.6948 139.644 49.4548 139.17 49.2904 138.703C49.1111 138.193 48.9439 137.679 48.7879 137.162C48.4872 136.163 48.2294 135.15 48.0165 134.128C47.5906 132.088 47.3496 130.015 47.2824 127.932C47.1488 123.748 47.7522 119.569 49.042 115.588C49.3969 114.494 49.8022 113.415 50.2664 112.362C50.513 111.801 50.7661 111.242 51.0304 110.69C51.1256 110.49 51.22 110.297 51.2993 110.101C53.8005 110.193 56.3035 110.254 58.7981 110.344C59.5546 110.371 60.3111 110.4 61.0676 110.427C56.5239 117.021 54.8325 125.257 56.1597 133.143C56.3595 134.329 56.6136 135.516 56.9115 136.682C57.0656 137.283 57.2468 137.877 57.4653 138.458C57.5606 138.712 57.6577 138.966 57.7633 139.217C57.9258 139.602 58.1537 139.741 58.3881 140.061C58.8102 140.637 59.7582 140.338 59.5882 139.572C59.5378 139.345 59.5808 139.103 59.5285 138.874C59.4696 138.617 59.3211 138.365 59.2193 138.122C59.0232 137.653 58.8336 137.181 58.6477 136.708C58.262 135.725 57.9174 134.737 57.6708 133.71C57.1926 131.719 56.9507 129.685 56.9255 127.637C56.8769 123.676 57.7306 119.738 59.3594 116.128C60.2626 114.128 61.3926 112.24 62.7142 110.488C66.7778 110.633 70.8415 110.774 74.9042 110.934C85.5373 111.355 96.1695 111.782 106.799 112.277C128.076 113.269 149.343 114.427 170.611 115.606C175.774 115.892 180.938 116.166 186.102 116.434C182.923 123.954 182.768 132.677 185.161 140.44C185.509 141.57 185.919 142.679 186.375 143.769C186.806 144.802 187.243 146.203 188.092 146.963C188.685 147.493 189.507 146.974 189.382 146.223C189.225 145.276 188.552 144.362 188.156 143.492C187.743 142.585 187.375 141.66 187.049 140.717C186.383 138.792 185.896 136.81 185.581 134.797C184.958 130.809 185.053 126.7 185.831 122.741C186.248 120.62 186.876 118.537 187.642 116.515C191.61 116.719 195.577 116.912 199.546 117.108C196.172 124.461 195.943 133.219 198.388 140.878C199.129 143.196 200.078 145.456 201.288 147.569C201.926 148.681 203.692 147.668 203.014 146.589C198.637 139.625 197.426 131.093 199.307 123.112C199.786 121.083 200.479 119.104 201.326 117.198C203.024 117.281 204.722 117.37 206.42 117.452C207.789 117.515 207.709 115.457 206.351 115.394Z" fill="#E8E5E2"/>
<path d="M121.574 130.133C119.359 130.785 116.929 130.904 114.636 131.126C112.325 131.349 110.009 131.519 107.69 131.634C105.371 131.75 103.049 131.811 100.727 131.82C98.6716 131.827 96.5487 131.907 94.5117 131.576C93.5133 131.413 92.5355 131.143 91.6445 130.655C91.2111 130.418 90.7385 130.123 90.4238 129.728C90.7199 129.295 90.9898 128.84 91.2279 128.369C91.4353 127.959 91.2345 127.491 90.7936 127.358C89.8214 127.067 88.8529 127.776 88.6166 128.724C88.5288 129.077 88.5596 129.417 88.6567 129.741C87.1409 131.321 84.8798 132.244 82.7252 131.807C80.9488 131.448 79.404 130.292 78.6839 128.752C79.5945 128.285 80.4799 127.768 81.3196 127.184C82.1938 126.576 83.124 125.922 83.8282 125.117C84.4493 124.407 84.8789 123.514 84.5725 122.563C84.3241 121.793 83.6106 121.222 82.8382 121.043C81.0767 120.633 79.2695 121.576 78.1693 122.923C77.0224 124.326 76.4789 126.174 76.7534 127.971C76.7693 128.074 76.7992 128.173 76.8207 128.274C75.9344 128.626 75.0238 128.919 74.0898 129.146C72.2817 129.585 70.099 129.837 68.5299 128.597C67.4055 127.707 66.8974 125.731 68.3572 124.87C69.3117 124.306 68.4683 122.856 67.4979 123.382C65.7225 124.346 65.2377 126.665 66.1259 128.403C67.1197 130.347 69.4321 131.16 71.499 131.054C73.4547 130.952 75.4048 130.279 77.212 129.467C77.806 130.759 78.8539 131.847 80.0737 132.559C82.0396 133.708 84.4436 133.883 86.5479 133.006C87.663 132.541 88.6138 131.836 89.417 130.984C89.6019 131.178 89.8018 131.354 90.0016 131.507C91.7967 132.875 94.0765 133.246 96.2769 133.354C101.662 133.62 107.138 133.299 112.503 132.829C114.017 132.697 115.53 132.54 117.04 132.362C118.623 132.176 120.219 131.888 121.812 131.878C123.109 131.868 122.813 129.768 121.574 130.133ZM78.414 125.628C78.7633 124.326 79.6459 123.123 80.8965 122.565C81.8977 122.118 84.3531 122.257 83.4182 123.934C82.9998 124.685 82.1648 125.228 81.483 125.716C80.7676 126.229 80.0223 126.7 79.2527 127.126C78.9473 127.295 78.6363 127.448 78.3244 127.601C78.2151 126.974 78.231 126.311 78.414 125.628Z" fill="#E8E5E2"/>
<path d="M176.64 133.749C172.571 132.336 168.278 131.747 163.983 131.649C161.844 131.6 159.7 131.654 157.567 131.829C155.465 132.002 153.174 132.437 151.141 131.642C151.117 131.633 151.092 131.617 151.068 131.608C152.189 130.866 153.059 129.841 153.133 128.363C153.225 126.498 151.675 125.111 149.842 125.563C148.06 126.003 146.964 127.715 147.302 129.507C147.434 130.209 147.759 130.832 148.191 131.373C146.363 131.972 144.493 132.503 142.614 132.894C138.583 133.731 133.797 133.505 130.924 130.152C130.168 129.269 128.928 130.553 129.661 131.433C132.62 134.977 137.575 135.568 141.862 134.777C144.389 134.311 146.887 133.464 149.275 132.525C149.313 132.51 149.351 132.491 149.388 132.476C150.076 132.941 150.857 133.272 151.644 133.431C152.871 133.678 154.097 133.613 155.339 133.574C156.599 133.533 157.86 133.487 159.121 133.451C164.88 133.291 170.694 133.684 176.164 135.619C177.331 136.03 177.809 134.155 176.64 133.749ZM148.799 128.051C149.234 126.976 151.139 126.125 151.737 127.524C152.061 128.283 151.705 129.246 151.178 129.821C150.789 130.245 150.295 130.545 149.772 130.787C148.962 130.073 148.384 129.077 148.799 128.051Z" fill="#E8E5E2"/>
<path d="M240.413 99.7699L201.429 110.662L73.0503 100.916C73.0503 100.916 55.293 85.1404 73.8657 65.8869L136.925 56.0476L208.955 61.7261L238.812 64.0797C238.812 64.0797 238.337 65.1845 237.717 67.0319C237.625 67.2999 237.532 67.5792 237.439 67.8678C235.467 74.0002 232.587 86.3994 237.656 95.8352C238.389 97.2193 239.298 98.5408 240.413 99.7699Z" fill="#DF431C"/>
<path d="M237.658 95.8342L199.587 106.595C190.978 94.8265 197.015 78.9679 197.015 78.9679L237.715 67.0291C235.754 72.8056 232.345 85.9455 237.658 95.8342Z" fill="#FDF9F7"/>
<path d="M237.715 67.0291C201.161 80.112 199.587 106.595 199.587 106.595C190.978 94.8265 197.015 78.9679 197.015 78.9679L237.715 67.0291Z" fill="#EACDB8"/>
<path d="M81.9649 72.4348C81.8491 72.5946 81.7819 72.7757 81.6717 72.9252C81.5689 73.0653 81.4326 73.1829 81.3046 73.2997C80.9983 73.5799 80.6686 73.8143 80.3156 74.0328C79.6665 74.4335 78.9716 74.7707 78.2422 74.9995C76.5424 75.5328 74.7277 75.5767 73.0111 75.1013C72.8579 75.0583 72.7234 75.0695 72.5992 75.1013C72.2975 74.9976 71.9324 75.0667 71.655 75.4422C68.2834 79.9999 68.0938 86.3359 71.1338 91.1103C71.2216 91.2485 71.3337 91.3307 71.4532 91.3895C71.584 91.6398 71.8194 91.8285 72.1509 91.8173C73.861 91.7612 75.6719 92.2609 77.0243 93.3032C78.3113 94.2951 79.135 95.6222 79.6076 97.1745C79.9952 98.4475 81.8912 97.9487 81.6035 96.6505C81.1543 94.621 79.8215 92.7961 78.1479 91.5997C76.4639 90.3958 74.4251 89.9279 72.3928 90.1324C69.7674 86.0006 69.8338 80.7022 72.73 76.7254C75.8232 77.4119 79.1472 76.6731 81.6978 74.8015C82.0322 74.5559 82.3516 74.2888 82.6878 74.0469C83.053 73.7844 83.5424 73.606 83.6741 73.1026C83.9776 71.9529 82.5907 71.5737 81.9649 72.4348Z" fill="#FEFCF2"/>
<path d="M187.13 88.5083C187.153 88.4485 187.181 88.3915 187.188 88.3215C187.231 87.9404 186.999 87.5108 186.594 87.4305C186.053 87.3231 185.487 87.3306 184.937 87.2717C184.374 87.212 183.816 87.1204 183.263 86.9999C182.2 86.7693 181.163 86.4255 180.214 85.8895C178.596 84.9742 177.276 83.5181 176.856 81.6773C176.621 80.6462 175.048 81.0665 175.272 82.0929C175.749 84.2849 177.285 86.0959 179.182 87.2334C180.223 87.8573 181.393 88.2851 182.572 88.5634C183.162 88.7025 183.76 88.8006 184.361 88.8781C184.727 88.9258 185.116 88.9846 185.502 89.0201C186.112 90.6424 186.382 92.3431 186.309 94.0756C186.272 94.9377 186.14 95.7866 185.919 96.6216C185.815 97.0185 185.69 97.4117 185.547 97.7965C185.433 98.1038 185.29 98.3924 185.2 98.6978C183.304 98.4708 181.408 98.807 179.705 99.6906C178.835 100.141 178.019 100.732 177.336 101.434C176.642 102.148 175.909 103.06 175.606 104.023C175.468 104.464 175.749 104.962 176.163 105.122C176.615 105.299 177.064 105.124 177.33 104.724C177.783 104.041 178.107 103.369 178.678 102.774C179.249 102.181 179.887 101.676 180.605 101.274C182.043 100.468 183.677 100.142 185.313 100.34C185.614 100.376 185.83 100.222 185.965 100.004C186.188 100.007 186.415 99.9409 186.596 99.7849C186.986 99.4487 187.143 98.9107 187.319 98.4419C187.496 97.9749 187.643 97.4976 187.763 97.0129C188 96.0547 188.134 95.0619 188.168 94.0747C188.234 92.1573 187.843 90.2781 187.13 88.5083Z" fill="#FEFCF2"/>
<path d="M176.213 80.9395C170.174 79.9429 164.039 79.5638 157.948 79.0071C151.897 78.4542 145.842 77.9424 139.783 77.4679C127.625 76.5162 115.459 75.5104 103.325 74.3C96.5039 73.6191 89.6916 72.8803 82.8793 72.1238C81.7791 72.0015 81.611 73.8031 82.7149 73.8862C94.8825 74.8006 107.033 75.8279 119.174 77.0523C131.311 78.2768 143.438 79.616 155.581 80.7676C162.394 81.4139 169.227 82.2946 176.073 82.4459C177.02 82.4674 177.148 81.0936 176.213 80.9395Z" fill="#FEFCF2"/>
<path d="M168.421 102.769C162.729 101.924 156.958 101.698 151.224 101.294C145.528 100.893 139.83 100.532 134.129 100.209C122.688 99.5616 111.24 98.8602 99.8166 97.9534C93.3966 97.4434 86.9822 96.8747 80.5687 96.2891C79.5329 96.1947 79.4021 97.9991 80.4407 98.0542C91.8901 98.6641 103.325 99.387 114.753 100.308C126.179 101.228 137.596 102.264 149.027 103.112C155.439 103.587 161.874 104.297 168.311 104.277C169.202 104.275 169.302 102.9 168.421 102.769Z" fill="#FEFCF2"/>
<path d="M77.8705 71.5625C77.8378 71.5018 77.793 71.4486 77.7509 71.3944C77.707 71.3365 77.6669 71.2795 77.6127 71.231C77.4128 71.0489 77.1607 70.8975 76.8907 70.8518C76.6722 70.8154 76.5274 70.8144 76.3089 70.8499C76.2734 70.8555 76.2388 70.8639 76.2052 70.8751C76.1137 70.906 76.0156 70.9424 75.9325 70.9937C75.741 71.1124 75.6159 71.245 75.4879 71.4271C75.4627 71.4626 75.4412 71.5 75.4226 71.5392C75.3525 71.6895 75.3049 71.8175 75.3002 71.9847C75.3002 71.9931 75.3039 72.0015 75.3039 72.0099C75.2965 72.0258 75.2843 72.0351 75.2769 72.0529C75.2797 72.0463 75.2423 72.1266 75.2348 72.1575C75.2199 72.2182 75.2115 72.306 75.2087 72.3685C75.2078 72.3844 75.2077 72.4003 75.2077 72.4162C75.2115 72.616 75.2554 72.7309 75.332 72.9102C75.3908 73.0466 75.4861 73.1624 75.5804 73.2763C75.6757 73.3912 75.8064 73.4856 75.9446 73.5444C76.1623 73.6369 76.3173 73.6882 76.5583 73.6976C76.6629 73.7013 76.7712 73.6817 76.8721 73.6649C76.9132 73.6574 76.9524 73.6471 76.9907 73.6331C77.2204 73.5491 77.3596 73.4687 77.5473 73.3109C77.6585 73.2175 77.7481 73.0924 77.8256 72.9728C77.8471 72.9401 77.8658 72.9056 77.8807 72.8701C77.9228 72.7739 77.9713 72.6739 77.9966 72.5703C78.0405 72.391 78.0451 72.2256 78.0218 72.0463C78.0012 71.8717 77.9573 71.7232 77.8705 71.5625Z" fill="#FEFCF2"/>
<path d="M75.9045 96.3657C75.9138 96.2947 75.9232 96.2237 75.9316 96.1527C75.9269 96.1957 75.9185 96.2386 75.9138 96.2825C75.9101 96.3096 75.9091 96.3386 75.9045 96.3657Z" fill="#FEFCF2"/>
<path d="M75.9026 95.7352C75.8961 95.7016 75.8858 95.6689 75.8737 95.6372C75.841 95.5512 75.8008 95.4308 75.7448 95.3448C75.6122 95.145 75.4823 95.0124 75.2769 94.8844C75.1835 94.8265 75.0714 94.7891 74.9724 94.7518C74.9304 94.7359 74.8874 94.7247 74.8426 94.7181C74.737 94.7013 74.6231 94.6817 74.5138 94.6827C74.4017 94.6836 74.2859 94.7023 74.1776 94.72C74.1365 94.7266 74.0954 94.7368 74.0553 94.7499C73.9469 94.7854 73.8404 94.8274 73.7396 94.8797C73.7209 94.8891 73.7032 94.8993 73.6854 94.9106C73.6163 94.9526 73.5304 95.0161 73.4865 95.059C73.4416 95.1179 73.3959 95.1777 73.351 95.2365C73.324 95.3028 73.2969 95.37 73.2698 95.4364C73.2212 95.5923 73.2399 95.8174 73.2745 95.9725C73.2987 96.078 73.3454 96.1807 73.3977 96.2751C73.408 96.2928 73.4192 96.3096 73.4304 96.3255C73.4697 96.3806 73.5136 96.4357 73.5574 96.4889C73.5602 96.4992 73.5621 96.5104 73.5659 96.5207C73.5976 96.6085 73.6284 96.6991 73.6742 96.7813C73.6919 96.814 73.7667 96.9036 73.7508 96.8831C73.776 96.9167 73.8021 96.9559 73.832 96.9877C73.8414 96.997 73.8507 97.0073 73.861 97.0157C73.9338 97.0811 74.0151 97.1408 74.0954 97.1959C74.116 97.2099 74.1384 97.223 74.1608 97.2333C74.2467 97.2725 74.3364 97.3136 74.4279 97.3398C74.4391 97.3426 74.4503 97.3454 74.4615 97.3472C74.5418 97.3631 74.6324 97.3734 74.7146 97.3799C74.7258 97.3809 74.737 97.3809 74.7482 97.3809C74.8108 97.3809 74.921 97.3622 74.9827 97.3519C74.9873 97.351 74.992 97.351 74.9967 97.3491C75.0079 97.3463 75.0191 97.3435 75.0294 97.3398C75.1088 97.3127 75.1928 97.2791 75.2685 97.2426C75.2899 97.2324 75.3096 97.2202 75.3292 97.2062C75.3992 97.1567 75.473 97.1025 75.5384 97.0456C75.5486 97.0372 75.5571 97.0278 75.5664 97.0185C75.5757 97.0091 75.5832 96.9989 75.5916 96.9886C75.6448 96.9214 75.7018 96.8532 75.7485 96.7813C75.7625 96.7588 75.7737 96.7355 75.7849 96.7122C75.8176 96.6374 75.869 96.5291 75.8905 96.4366C75.9026 96.3853 75.9063 96.3311 75.912 96.2788C75.9241 96.2022 75.939 96.1247 75.9381 96.0472C75.939 95.9454 75.9222 95.838 75.9026 95.7352Z" fill="#FEFCF2"/>
<path d="M183.67 82.714C183.664 82.6776 183.656 82.6421 183.644 82.6075C183.613 82.5179 183.578 82.4189 183.526 82.3357C183.347 82.0453 183.08 81.8529 182.758 81.7492C182.724 81.7389 182.69 81.7305 182.655 81.7249C182.561 81.709 182.461 81.6922 182.364 81.6941C182.235 81.696 182.097 81.7119 181.976 81.7576C181.791 81.8267 181.644 81.9005 181.5 82.0425C181.417 82.1228 181.372 82.2218 181.32 82.3189C181.282 82.3376 181.241 82.3516 181.21 82.3824C181.148 82.4179 181.101 82.4665 181.065 82.5272C180.996 82.6029 180.95 82.6916 180.927 82.7943C180.923 82.8046 180.92 82.8149 180.918 82.8251C180.903 82.8784 180.889 82.9858 180.89 83.0409C180.891 83.1221 180.908 83.2053 180.92 83.2837C180.932 83.3631 180.958 83.4285 180.989 83.5041C181.059 83.6769 181.164 83.8329 181.3 83.9646C181.375 84.0383 181.464 84.1 181.548 84.1607C181.587 84.1896 181.629 84.2139 181.673 84.2345C181.884 84.3325 182.053 84.3792 182.284 84.3979C182.646 84.4259 182.983 84.2662 183.247 84.0337C183.355 83.9393 183.445 83.817 183.514 83.6928C183.561 83.6087 183.595 83.5153 183.628 83.4266C183.644 83.3846 183.657 83.3416 183.666 83.2977C183.706 83.0848 183.705 82.926 183.67 82.714Z" fill="#FEFCF2"/>
<path d="M184.373 103.895C184.357 103.842 184.332 103.789 184.312 103.738C184.288 103.682 184.268 103.623 184.239 103.57C184.181 103.467 184.101 103.368 184.025 103.281C183.949 103.192 183.836 103.117 183.748 103.052C183.617 102.957 183.456 102.887 183.299 102.854C183.08 102.807 182.839 102.795 182.621 102.864C182.478 102.91 182.354 102.977 182.237 103.058C182.221 103.061 182.205 103.054 182.188 103.057C182.053 103.092 182.002 103.128 181.906 103.202C181.862 103.236 181.835 103.251 181.804 103.285C181.729 103.368 181.661 103.457 181.602 103.552C181.48 103.747 181.438 103.975 181.433 104.202C181.431 104.359 181.447 104.527 181.505 104.673C181.545 104.775 181.585 104.894 181.646 104.99C181.71 105.089 181.781 105.185 181.862 105.27C181.942 105.355 182.045 105.425 182.139 105.49C182.231 105.555 182.353 105.594 182.452 105.632C182.597 105.687 182.761 105.707 182.915 105.704C183.067 105.701 183.233 105.681 183.379 105.626C183.481 105.587 183.596 105.547 183.693 105.489C183.793 105.43 183.884 105.356 183.972 105.28C184.005 105.252 184.033 105.221 184.061 105.186C184.131 105.097 184.212 105.008 184.261 104.904C184.36 104.695 184.433 104.476 184.422 104.24C184.417 104.125 184.406 104.006 184.373 103.895Z" fill="#FEFCF2"/>
<path d="M171.663 89.6262C171.627 89.2078 171.359 88.7894 170.887 88.7922C170.868 88.7922 170.854 88.8006 170.836 88.8015C170.71 88.7137 170.562 88.6456 170.371 88.6362C159.097 88.0609 147.826 87.0989 136.578 86.1519C125.312 85.203 114.056 84.156 102.809 82.9998C96.4338 82.3441 90.0596 81.6736 83.6778 81.087C82.7653 81.003 82.4954 82.0471 82.9241 82.6281C82.9166 82.6636 82.8989 82.6962 82.897 82.7336C82.8429 83.69 82.7887 84.6473 82.7336 85.6036C82.7084 86.0482 82.6869 86.4918 82.671 86.9364C82.6617 87.1942 82.6112 87.5052 82.6682 87.7592C82.7439 88.0983 83.0241 88.4027 83.379 88.4438C83.5237 88.5914 83.7124 88.7063 83.9701 88.7305C95.2253 89.7747 106.51 90.4023 117.773 91.3466C128.994 92.2871 140.232 93.051 151.449 94.0354C157.786 94.5921 164.132 95.0478 170.479 95.4952C170.828 95.5195 171.072 95.3729 171.23 95.1599C171.361 95.0254 171.448 94.8489 171.46 94.6518C171.504 93.815 171.529 92.9772 171.552 92.1395C171.563 91.7285 171.572 91.3185 171.597 90.9076C171.624 90.4901 171.7 90.0418 171.663 89.6262ZM136.7 91.5156C125.467 90.6975 114.242 89.842 103.037 88.6941C96.7934 88.0544 90.5518 87.4174 84.3026 86.8355C84.3157 86.4433 84.326 86.052 84.3316 85.6597C84.3447 84.7911 84.3577 83.9235 84.3708 83.0549C95.3747 83.9449 106.394 84.6519 117.403 85.4869C128.67 86.3415 139.936 87.3539 151.178 88.4924C157.461 89.1293 163.755 89.6972 170.025 90.4602C170.029 90.591 170.033 90.7227 170.033 90.8488C170.03 91.2597 170.01 91.6697 169.993 92.0807C169.973 92.5729 169.962 93.065 169.947 93.5572C158.861 92.924 147.774 92.3225 136.7 91.5156Z" fill="#FEFCF2"/>
<mask id="mask2_111_2416" style="mask-type:luminance" maskUnits="userSpaceOnUse" x="194" y="67" width="44" height="40">
<path d="M237.658 95.8342L199.587 106.595C190.978 94.8265 197.015 78.9679 197.015 78.9679L237.715 67.0291C235.754 72.8056 232.345 85.9455 237.658 95.8342Z" fill="white"/>
</mask>
<g mask="url(#mask2_111_2416)">
<path d="M252.391 65.5544C248.382 66.5976 244.415 67.8248 240.433 68.9661C236.54 70.0822 232.64 71.1806 228.744 72.2864C220.864 74.5232 212.976 76.7712 205.037 78.7895C200.565 79.9261 196.096 81.0796 191.63 82.2414C190.613 82.5057 191.037 84.1093 192.043 83.817C199.915 81.5307 207.772 79.2033 215.669 77.0038C223.562 74.8052 231.485 72.7132 239.402 70.6034C243.858 69.4163 248.355 68.3395 252.784 67.0525C253.741 66.7751 253.357 65.3032 252.391 65.5544Z" fill="#34322D"/>
<path d="M247.406 75.9036C243.398 76.9468 239.43 78.174 235.449 79.3153C231.555 80.4314 227.656 81.5297 223.759 82.6355C215.88 84.8724 207.991 87.1204 200.053 89.1387C195.58 90.2753 191.112 91.4288 186.646 92.5906C185.629 92.8549 186.053 94.4585 187.059 94.1662C194.93 91.8799 202.787 89.5524 210.684 87.353C218.578 85.1544 226.501 83.0624 234.418 80.9525C238.874 79.7655 243.371 78.6886 247.799 77.4016C248.756 77.1233 248.373 75.6514 247.406 75.9036Z" fill="#34322D"/>
<path d="M246.183 70.8303C231.754 75.4431 217.282 79.9075 202.743 84.1616C198.682 85.3496 194.628 86.5656 190.573 87.7761C189.562 88.0777 189.984 89.6757 190.989 89.36C205.443 84.8191 219.862 80.1811 234.38 75.8475C238.436 74.6371 242.493 73.4342 246.554 72.2443C247.458 71.9782 247.077 70.5445 246.183 70.8303Z" fill="#34322D"/>
<path d="M242.397 81.115C229.061 85.7428 215.487 89.7318 201.849 93.363C197.99 94.3903 194.121 95.385 190.254 96.3815C189.403 96.601 189.753 97.9328 190.599 97.7003C197.408 95.8277 204.171 93.8038 210.956 91.8462C217.737 89.8887 224.517 87.9227 231.279 85.8988C235.102 84.7547 238.928 83.6125 242.762 82.502C243.655 82.2433 243.262 80.8152 242.397 81.115Z" fill="#34322D"/>
<path d="M243.263 85.0769C229.67 89.459 216.036 93.7076 202.361 97.8254C198.497 98.9892 194.598 100.087 190.775 101.376C189.871 101.681 190.22 103.089 191.154 102.823C194.585 101.848 197.977 100.701 201.374 99.614C204.776 98.525 208.177 97.436 211.579 96.347C218.379 94.1709 225.216 92.1143 232.046 90.0353C235.91 88.8594 239.771 87.6724 243.641 86.5161C244.56 86.2406 244.172 84.7836 243.263 85.0769Z" fill="#34322D"/>
<path d="M247.202 88.3233C243.487 89.3946 239.82 90.6601 236.136 91.835C232.54 92.9819 228.936 94.1092 225.336 95.2449C218.046 97.5452 210.752 99.8297 203.451 102.094C201.379 102.736 199.306 103.377 197.233 104.021C195.21 104.65 193.112 105.194 191.155 106.007C190.472 106.291 190.963 107.304 191.625 107.161C193.501 106.756 195.347 106.065 197.18 105.491C198.982 104.927 200.779 104.354 202.579 103.784C206.223 102.632 209.861 101.458 213.512 100.324C220.721 98.0841 227.93 95.8445 235.138 93.6049C239.279 92.3179 243.471 91.1514 247.578 89.7616C248.478 89.4581 248.129 88.0553 247.202 88.3233Z" fill="#34322D"/>
</g>
<path d="M235.614 64.386C234.155 64.7119 232.723 65.2144 231.291 65.6412C229.894 66.0578 228.496 66.4734 227.098 66.8899C224.263 67.7342 221.426 68.5776 218.588 69.4144C212.912 71.0881 207.234 72.7515 201.544 74.3756C198.329 75.2937 195.105 76.18 191.887 77.0897C191.814 77.1102 191.761 77.1476 191.706 77.1831C191.642 77.1485 191.571 77.1196 191.484 77.1084C178.418 75.43 165.318 74.0347 152.227 72.5712C139.135 71.1077 126.045 69.6386 112.952 68.19C109.327 67.7893 105.701 67.3877 102.077 66.9871C98.3718 66.5771 94.65 66.1269 90.9309 65.8915C90.1212 65.8402 89.9904 67.0132 90.7918 67.1421C94.0513 67.6642 97.3491 67.9967 100.626 68.3833C103.907 68.77 107.193 69.1221 110.476 69.491C117 70.2242 123.524 70.9526 130.049 71.6774C143.141 73.1325 156.233 74.5885 169.326 76.0437C176.662 76.859 183.999 77.6473 191.347 78.3421C191.473 78.3543 191.576 78.3262 191.668 78.2833C191.809 78.401 191.997 78.4598 192.23 78.3916C203.577 75.0312 214.939 71.7288 226.334 68.5309C227.902 68.091 229.471 67.6511 231.04 67.2103C232.683 66.7489 234.377 66.3641 235.984 65.7897C236.854 65.4787 236.539 64.1796 235.614 64.386Z" fill="#FEFCF2"/>
<path d="M72.164 67.7576L98.2223 90.5237L238.812 64.0797L72.164 67.7576Z" fill="#34322D"/>
<path d="M247.337 62.3976L96.9858 81.1552L64.895 63.8349C65.4059 63.042 66.0092 61.9493 66.2875 60.8351C67.4428 56.1055 68.6402 46.7902 64.4373 35.7929C63.9778 34.5946 63.4558 33.3711 63.2858 33.3683L189.717 17.8637L197.551 19.7493L230.879 27.7823L247.834 31.873C247.834 31.873 261.456 46.8948 247.337 62.3976Z" fill="#63A19A"/>
<path d="M95.8716 76.8851L93.4508 75.5692L90.3519 73.8909L66.2866 60.8379C67.4438 56.1055 68.643 46.7874 64.4336 35.7966C64.4336 35.7966 64.4411 35.8031 64.4551 35.8087L74.61 40.1563L95.8632 50.5709C95.8632 50.5709 105.887 66.4594 95.8716 76.8851Z" fill="#FDF9F7"/>
<path d="M95.8716 76.8851L93.4508 75.5692C98.1233 56.7565 65.3872 36.3831 64.456 35.8087L74.611 40.1563L95.8641 50.5709C95.8641 50.5709 105.887 66.4594 95.8716 76.8851Z" fill="#EACDB8"/>
<mask id="mask3_111_2416" style="mask-type:luminance" maskUnits="userSpaceOnUse" x="64" y="35" width="37" height="42">
<path d="M95.8716 76.8851L66.2866 60.8379C67.4438 56.1055 68.643 46.7874 64.4336 35.7966L95.8641 50.5709C95.8641 50.5709 105.887 66.4594 95.8716 76.8851Z" fill="white"/>
</mask>
<g mask="url(#mask3_111_2416)">
<path d="M101.713 71.7568C100.454 71.0292 99.1096 70.4716 97.7899 69.8608C96.4964 69.2622 95.2066 68.6551 93.9215 68.0396C91.3017 66.7844 88.695 65.5021 86.107 64.1805C80.9815 61.5626 75.926 58.8084 70.948 55.9196C68.1274 54.2833 65.3265 52.6144 62.5526 50.9005C62.1258 50.6372 61.7989 51.3423 62.2192 51.6057C67.1206 54.6784 72.1051 57.6129 77.1709 60.4054C82.2115 63.184 87.3259 65.828 92.5075 68.3329C93.9635 69.0371 95.4261 69.7263 96.8933 70.4053C98.3849 71.0965 99.8652 71.8408 101.43 72.3517C101.828 72.4825 102.089 71.9735 101.713 71.7568Z" fill="#34322D"/>
<path d="M105.498 68.458C100.053 65.8971 94.5911 63.3717 89.1359 60.8323C83.7068 58.305 78.2721 55.7908 72.8392 53.2719C69.7544 51.8411 66.6779 50.3878 63.565 49.0177C63.2092 48.8608 62.9561 49.3913 63.3063 49.565C68.6962 52.2371 74.1748 54.7373 79.6151 57.3028C85.0311 59.8572 90.4499 62.406 95.8697 64.952C98.4166 66.1484 100.964 67.3448 103.513 68.5356C103.543 68.5748 103.58 68.6103 103.631 68.6355C104.112 68.8727 104.604 69.0987 105.107 69.2837C105.649 69.4798 106.039 68.7121 105.498 68.458Z" fill="#34322D"/>
<path d="M102.706 63.2064C101.613 62.4116 100.226 61.9717 98.9891 61.4412C97.676 60.878 96.3647 60.3083 95.0562 59.7339C92.4654 58.5964 89.883 57.4373 87.3118 56.2568C82.1685 53.8958 77.0645 51.4497 72.0015 48.9206C69.1445 47.4925 66.2987 46.044 63.467 44.5674C63.0962 44.3741 62.8216 44.9578 63.1896 45.1539C68.1853 47.8166 73.225 50.3925 78.3085 52.8815C83.3911 55.3705 88.5157 57.7745 93.6777 60.0935C95.1085 60.7361 96.5431 61.373 97.9795 62.0025C98.7239 62.3285 99.4664 62.6591 100.216 62.971C100.947 63.2746 101.661 63.6173 102.444 63.7537C102.734 63.8023 102.968 63.396 102.706 63.2064Z" fill="#34322D"/>
<path d="M102.845 60.4008C100.226 59.0288 97.4911 57.8473 94.8172 56.5865C92.1376 55.3228 89.4581 54.0592 86.7776 52.7946C81.4447 50.2795 76.1156 47.755 70.7771 45.2501C67.7529 43.8305 64.7288 42.4118 61.7046 40.9922C61.3525 40.8269 61.0938 41.3695 61.4459 41.5395C66.7835 44.1135 72.122 46.6865 77.4642 49.2512C82.7803 51.8028 88.0964 54.3543 93.4125 56.9068C94.9049 57.6232 96.3974 58.3395 97.8908 59.0559C98.9452 59.5621 99.9988 60.0776 101.06 60.5754C101.08 60.6268 101.122 60.6707 101.191 60.695C101.628 60.8425 102.039 61.0303 102.459 61.2208C102.99 61.4627 103.362 60.6716 102.845 60.4008Z" fill="#34322D"/>
<path d="M103.348 57.2673C102.774 56.7938 102.093 56.5202 101.426 56.2008C100.745 55.8748 100.064 55.5489 99.3823 55.2229C98.0468 54.5832 96.7121 53.9415 95.3766 53.3008C92.6541 51.9942 89.9307 50.6876 87.2073 49.3819C81.8136 46.7939 76.4219 44.2022 71.0302 41.6123C67.9677 40.1414 64.8997 38.6807 61.8316 37.2209C61.4487 37.0388 61.1676 37.629 61.5496 37.8177C66.9432 40.4739 72.3452 43.1104 77.7481 45.746C83.1249 48.3686 88.5017 50.993 93.8776 53.6175L98.4185 55.8347C99.175 56.2045 99.9315 56.5753 100.688 56.9451C101.448 57.3178 102.193 57.7623 103.025 57.9417C103.4 58.022 103.641 57.5102 103.348 57.2673Z" fill="#34322D"/>
<path d="M101.12 75.9493C99.952 75.1657 98.6818 74.5185 97.4537 73.833C96.2106 73.139 94.9628 72.4526 93.7113 71.7717C91.2597 70.438 88.8034 69.1137 86.3424 67.7996C81.37 65.1434 76.3761 62.5246 71.3524 59.9656C68.5113 58.5189 65.6552 57.102 62.7954 55.6918C62.4415 55.5171 62.1996 56.0672 62.5461 56.2493C72.4899 61.4599 82.402 66.7377 92.2301 72.163C93.6263 72.9345 95.0207 73.7097 96.4189 74.4774C97.8095 75.2404 99.1834 76.0866 100.627 76.7441C101.096 76.9571 101.573 76.2538 101.12 75.9493Z" fill="#34322D"/>
</g>
<path d="M247.452 38.138C246.495 36.2598 245.278 34.5591 243.821 33.0358C243.677 32.8854 243.494 32.8668 243.323 32.9153C243.237 32.878 243.141 32.8546 243.024 32.8658C238.583 33.2674 234.175 33.9912 229.742 34.4937C225.312 34.9952 216.367 35.8349 211.936 36.3373C203.076 37.3413 194.213 38.3304 185.352 39.3344C167.721 41.3312 150.089 43.328 132.458 45.3248C122.511 46.4512 112.566 47.5822 102.62 48.7151C101.857 48.802 101.858 49.8639 102.47 50.0348C106.507 56.1784 107.467 64.1095 105.293 71.1049C104.983 72.1033 104.598 73.0811 104.156 74.0282C103.708 74.9864 103.283 75.9503 102.844 76.9113C102.661 77.311 103.203 77.6753 103.495 77.3353C104.142 76.5835 104.693 75.8223 105.133 74.9294C105.56 74.0609 105.923 73.1577 106.237 72.2424C106.869 70.3951 107.301 68.487 107.509 66.5453C107.923 62.6722 107.514 58.6944 106.231 55.0109C105.612 53.2317 104.777 51.5291 103.769 49.9377C121.142 47.9343 138.513 45.9179 155.885 43.9034C173.512 41.858 191.139 39.7986 208.767 37.7542C213.739 37.1779 223.225 36.2636 228.197 35.6864C233.166 35.1101 238.169 34.7664 243.122 34.079C243.136 34.0772 243.145 34.0697 243.159 34.0669C245.385 36.6773 247.055 39.7323 247.943 43.0516C248.866 46.5026 248.861 50.1478 248.029 53.6156C247.555 55.5937 246.825 57.4971 245.892 59.3034C245.58 59.9086 246.484 60.2971 246.829 59.7461C250.862 53.2971 250.87 44.8392 247.452 38.138Z" fill="#FFEEA6"/>
<path d="M136.769 55.2659C136.397 53.723 135.854 52.2417 135.174 50.8193C135.135 50.7371 135.085 50.6802 135.029 50.6391C135.017 50.4243 134.868 50.2113 134.599 50.2141C130.769 50.2552 126.9 50.6409 123.116 51.2424C122.662 51.3143 122.528 51.813 122.669 52.1427C122.637 52.238 122.629 52.3454 122.676 52.4696C123.884 55.5694 124.54 58.87 124.623 62.2155C124.708 65.6011 124.126 68.8512 123.08 72.0454C123.046 72.1481 123.044 72.2443 123.057 72.3349C122.893 72.7375 123.105 73.3174 123.654 73.2838C125.469 73.1708 127.279 72.8794 129.082 72.6394C129.97 72.5217 130.86 72.4134 131.751 72.3181C132.669 72.22 133.593 72.1958 134.508 72.0641C134.863 72.0127 135.032 71.7213 135.05 71.4271C136.336 69.0679 137.02 66.281 137.309 63.6005C137.606 60.8173 137.422 57.9818 136.769 55.2659ZM135.745 66.8778C135.373 68.2395 134.832 69.52 134.246 70.7911C133.387 70.9433 132.54 71.16 131.677 71.2982C130.791 71.4402 129.901 71.5504 129.009 71.6316C127.437 71.7745 125.861 71.8212 124.287 71.9193C125.855 67.0338 126.007 61.5468 124.934 56.5492C124.625 55.1165 124.204 53.7155 123.684 52.3529C125.422 52.0615 127.167 51.8 128.915 51.5852C130.701 51.3657 132.486 51.2405 134.278 51.1079C134.269 51.2069 134.277 51.3087 134.328 51.4142C136.66 56.1438 137.139 61.77 135.745 66.8778Z" fill="#FFEEA6"/>
<path d="M103.237 49.254C102.268 48.6479 101.108 48.2883 100.055 47.8503C99.0368 47.4272 98.0197 47.0022 97.0007 46.581C94.9096 45.7171 92.7951 44.9055 90.7199 44.0033C86.6273 42.2232 82.5907 40.3207 78.5392 38.4509C76.2239 37.3824 73.9142 36.3037 71.5933 35.2474C70.9013 34.9327 70.3857 36.0123 71.0862 36.3159C75.2358 38.1147 79.4021 39.878 83.5648 41.646C87.7302 43.4149 91.8294 45.3006 95.9014 47.2749C97.0483 47.8316 98.2037 48.3705 99.3552 48.9168C100.491 49.4548 101.633 50.1188 102.845 50.4625C103.151 50.5494 103.476 50.3066 103.566 50.0283C103.671 49.7032 103.511 49.4258 103.237 49.254Z" fill="#FFEEA6"/>
<path d="M120.988 56.4987C120.627 55.0128 120.177 53.4942 119.491 52.1203C119.54 52.0316 119.567 51.9326 119.557 51.8355C119.521 51.4862 119.038 51.1901 118.741 51.4656C118.607 51.5908 118.246 51.5795 118.075 51.5992C117.842 51.6244 117.611 51.6468 117.378 51.6599C116.912 51.686 116.447 51.714 115.981 51.7467C115.049 51.8112 114.121 51.8915 113.193 51.9793C113.092 51.9886 113.015 52.0269 112.951 52.0755C112.674 52.1679 112.457 52.4407 112.588 52.7928C114.483 57.8931 115.002 63.4502 114.066 68.8111C113.939 69.5414 113.785 70.2662 113.606 70.9853C113.416 71.7446 113.105 72.5021 113.039 73.2829C113.015 73.5659 113.18 73.7396 113.381 73.7825C113.47 73.9581 113.644 74.087 113.899 74.0609C114.862 73.9609 115.823 73.8451 116.784 73.734C117.265 73.6779 117.75 73.6583 118.232 73.6331C118.455 73.6219 118.682 73.6247 118.902 73.5976C119.174 73.564 119.405 73.4342 119.659 73.3436C119.837 73.2801 119.919 73.1222 119.924 72.9607C120 72.9523 120.075 72.9308 120.144 72.8859C120.686 72.5357 120.786 71.5784 120.939 70.9928C121.113 70.3316 121.263 69.6638 121.385 68.9904C121.639 67.5932 121.787 66.1773 121.833 64.7586C121.923 61.9801 121.642 59.2006 120.988 56.4987ZM120.346 68.2115C120.213 68.9596 120.053 69.7039 119.864 70.4408C119.77 70.8079 119.669 71.174 119.558 71.5364C119.458 71.8623 119.344 72.1621 119.398 72.4871C119.195 72.4488 118.996 72.4068 118.784 72.4218C118.563 72.4376 118.341 72.4871 118.121 72.5208C117.643 72.5936 117.164 72.6711 116.681 72.7122C115.855 72.7832 115.028 72.8551 114.202 72.9336C114.376 72.4787 114.487 71.994 114.607 71.528C114.779 70.8602 114.928 70.1868 115.056 69.5088C115.315 68.1274 115.481 66.7283 115.554 65.3246C115.699 62.5209 115.517 59.7031 114.948 56.9526C114.663 55.5806 114.287 54.2311 113.828 52.9076C114.577 52.8245 115.325 52.7395 116.073 52.6396C116.535 52.5779 116.998 52.5116 117.459 52.4444C117.671 52.4136 117.882 52.3893 118.096 52.3697C118.213 52.3585 118.41 52.3221 118.583 52.3193C119.019 53.5829 119.499 54.8232 119.845 56.1176C120.201 57.4467 120.453 58.8028 120.61 60.1692C120.918 62.8431 120.814 65.5637 120.346 68.2115Z" fill="#FFEEA6"/>
<path d="M241.255 43.6073C240.884 42.0644 240.341 40.5831 239.661 39.1607C239.622 39.0785 239.571 39.0216 239.515 38.9805C239.503 38.7647 239.355 38.5527 239.086 38.5555C235.255 38.5966 231.387 38.9823 227.603 39.5838C227.149 39.6557 227.014 40.1544 227.155 40.4841C227.124 40.5794 227.115 40.6868 227.163 40.811C228.37 43.9108 229.027 47.2114 229.11 50.5569C229.194 53.9425 228.612 57.1926 227.566 60.3868C227.533 60.4895 227.531 60.5857 227.544 60.6763C227.379 61.0789 227.591 61.6588 228.141 61.6252C229.955 61.5122 231.765 61.2208 233.569 60.9808C234.457 60.8631 235.347 60.7548 236.237 60.6595C237.155 60.5614 238.08 60.5381 238.994 60.4055C239.35 60.3541 239.519 60.0627 239.537 59.7685C240.823 57.4093 241.506 54.6224 241.795 51.9419C242.094 49.1587 241.91 46.3233 241.255 43.6073ZM240.233 55.2192C239.861 56.5809 239.319 57.8614 238.733 59.1325C237.873 59.2847 237.026 59.5014 236.163 59.6396C235.278 59.7816 234.388 59.8918 233.496 59.973C231.923 60.1159 230.348 60.1626 228.774 60.2607C230.342 55.3752 230.493 49.8882 229.42 44.8906C229.113 43.4579 228.691 42.0569 228.17 40.6943C229.909 40.4029 231.653 40.1414 233.402 39.9266C235.187 39.7071 236.973 39.5819 238.764 39.4493C238.756 39.5483 238.763 39.651 238.816 39.7556C241.147 44.4852 241.626 50.1114 240.233 55.2192Z" fill="#FFEEA6"/>
<path d="M225.475 44.8401C225.116 43.3542 224.664 41.8356 223.979 40.4617C224.027 40.373 224.055 40.274 224.044 40.1769C224.009 39.8276 223.526 39.5315 223.229 39.807C223.094 39.9322 222.734 39.9209 222.562 39.9406C222.33 39.9658 222.099 39.9882 221.865 40.0013C221.399 40.0274 220.934 40.0554 220.468 40.0881C219.537 40.1526 218.609 40.2329 217.68 40.3207C217.579 40.33 217.503 40.3683 217.438 40.4169C217.162 40.5094 216.944 40.7821 217.075 41.1342C218.97 46.2345 219.488 51.7916 218.554 57.1525C218.427 57.8819 218.272 58.6076 218.093 59.3267C217.904 60.086 217.592 60.8435 217.526 61.6243C217.503 61.9073 217.667 62.081 217.869 62.1239C217.958 62.2995 218.131 62.4284 218.386 62.4023C219.349 62.3023 220.31 62.1865 221.271 62.0744C221.752 62.0184 222.237 61.9988 222.72 61.9736C222.941 61.9624 223.169 61.9652 223.39 61.9381C223.661 61.9045 223.892 61.7746 224.146 61.684C224.324 61.6205 224.407 61.4627 224.411 61.3011C224.488 61.2927 224.563 61.2712 224.632 61.2264C225.173 60.8762 225.273 59.9189 225.427 59.3333C225.6 58.672 225.751 58.0043 225.872 57.3309C226.126 55.9337 226.275 54.5178 226.319 53.0991C226.411 50.3215 226.13 47.542 225.475 44.8401ZM224.833 56.5529C224.701 57.301 224.54 58.0453 224.352 58.7822C224.257 59.1493 224.156 59.5154 224.045 59.8778C223.945 60.2037 223.831 60.5035 223.886 60.8285C223.683 60.7902 223.484 60.7482 223.272 60.7632C223.051 60.779 222.828 60.8285 222.609 60.8622C222.13 60.935 221.651 61.0125 221.169 61.0536C220.342 61.1246 219.516 61.1965 218.689 61.275C218.863 60.8201 218.974 60.3354 219.093 59.8694C219.265 59.2016 219.415 58.5282 219.543 57.8502C219.801 56.4688 219.968 55.0697 220.04 53.666C220.185 50.8623 220.004 48.0445 219.434 45.294C219.149 43.922 218.774 42.5725 218.314 41.249C219.063 41.165 219.813 41.0809 220.56 40.981C221.022 40.9193 221.484 40.853 221.946 40.7858C222.158 40.755 222.369 40.7307 222.583 40.7111C222.699 40.6999 222.896 40.6635 223.069 40.6607C223.505 41.9243 223.985 43.1646 224.332 44.4591C224.688 45.7881 224.94 47.1442 225.097 48.5106C225.405 51.1845 225.301 53.9051 224.833 56.5529Z" fill="#FFEEA6"/>
<path d="M206.098 50.8315C202.555 50.8828 199.941 53.3532 196.918 54.8204C194.589 55.9514 191.404 56.3185 190.016 53.6483C189.339 52.3445 188.11 51.5506 186.692 52.3856C186.017 52.7816 185.521 53.4157 184.994 53.978C184.428 54.5804 183.837 55.1604 183.215 55.7049C182.06 56.7145 180.651 58.0538 179.111 58.4031C178.574 58.5245 177.958 58.5039 177.481 58.2023C176.929 57.853 176.712 57.1207 176.253 56.6678C175.737 56.1606 175.007 55.9654 174.315 56.212C173.512 56.4987 173.099 57.2095 172.677 57.8931C172.341 58.4358 171.851 58.9037 171.182 58.532C170.539 58.1743 170.751 57.5018 170.926 56.9545C171.343 56.2867 170.381 55.6535 169.816 56.0243C168.992 56.5641 168.81 57.6036 169.056 58.5226C168.816 58.9242 168.52 59.2922 168.236 59.5817C167.536 60.2943 166.617 60.7398 165.617 60.8071C163.888 60.9238 162.283 59.5369 162.602 57.7633C162.614 57.6989 162.623 57.6316 162.63 57.5634C162.634 57.5494 162.632 57.5364 162.636 57.5224C162.636 57.5224 162.634 57.5224 162.632 57.5224C162.637 57.4551 162.646 57.3897 162.643 57.3169C162.617 56.5333 161.39 56.3026 161.111 57.0535C160.842 57.7811 160.802 58.5011 160.938 59.167C160.708 59.6499 160.382 60.1001 159.972 60.4466C159.122 61.1648 158.011 61.4356 156.923 61.2218C154.64 60.7744 153.525 58.2406 154.509 56.1905C155.036 55.0941 153.34 54.3235 152.792 55.406C151.206 58.5366 153.129 62.4303 156.628 62.9496C158.23 63.1877 159.831 62.7049 160.968 61.5402C161.216 61.2871 161.433 61.0004 161.622 60.6969C162.442 61.8223 163.836 62.5573 165.371 62.4826C166.806 62.4135 168.182 61.6439 169.102 60.5624C169.327 60.2981 169.529 60.0086 169.71 59.7059C169.777 59.7769 169.837 59.8554 169.911 59.9152C171.13 60.907 172.987 60.4849 173.817 59.2222C174.029 58.8999 174.488 57.5784 175 57.6961C175.193 57.74 175.372 58.1976 175.459 58.3461C175.654 58.6786 175.841 58.9952 176.114 59.2726C177.274 60.4447 179.132 60.4223 180.544 59.7685C182.102 59.0475 183.474 57.8679 184.737 56.721C185.355 56.1588 185.953 55.575 186.522 54.9624C186.84 54.6187 187.654 53.4325 188.135 54.0144C188.535 54.4982 188.682 55.1585 189.085 55.6544C189.557 56.2354 190.152 56.6958 190.822 57.0264C192.158 57.6849 193.756 57.7923 195.197 57.4878C199.172 56.6482 202.099 52.8488 206.272 52.7909C207.539 52.7741 207.359 50.8137 206.098 50.8315Z" fill="#FFEEA6"/>
<path d="M144.736 39.0421C144.267 38.5144 143.514 38.2454 142.892 37.9382C142.23 37.6113 141.552 37.3133 140.881 37.007C139.536 36.3934 138.179 35.8106 136.821 35.2269C134.129 34.0678 131.426 32.9471 128.679 31.9235C127.833 31.6087 127.481 32.9686 128.323 33.2815C131.066 34.2995 133.81 35.3642 136.466 36.5951C137.765 37.1975 139.059 37.8158 140.338 38.4602C140.872 38.7292 141.403 39.0075 141.937 39.2775C140.195 39.4316 138.46 39.6763 136.726 39.8883C134.339 40.1806 131.951 40.472 129.564 40.7625C124.876 41.3322 120.18 41.8636 115.48 42.3296C112.936 42.5827 110.376 42.749 107.837 43.0525C107.498 42.536 106.737 42.3436 106.19 42.0859C105.411 41.7207 104.633 41.3546 103.854 40.9894C102.296 40.2572 100.726 39.5511 99.16 38.8366C96.685 37.7084 94.2549 36.4943 91.8163 35.296C93.3807 35.0999 94.9432 34.885 96.5076 34.6973C98.8957 34.4106 101.284 34.1332 103.676 33.882C108.374 33.3888 113.073 32.9116 117.776 32.4568C120.465 32.1962 123.179 32.0206 125.84 31.5489C126.731 31.3911 126.592 30.1144 125.687 30.1536C123.327 30.2554 120.983 30.6019 118.64 30.8886C116.252 31.181 113.865 31.4724 111.478 31.7628C106.79 32.3325 102.094 32.864 97.3939 33.33C94.7041 33.5971 91.9957 33.7634 89.3143 34.1024C88.6101 34.1911 88.5204 35.0121 88.9126 35.3875C88.9724 35.4678 89.0527 35.5398 89.1676 35.5939C92.3216 37.0771 95.5101 38.4752 98.6333 40.0237C100.172 40.7867 101.709 41.5563 103.256 42.3016C104.031 42.6743 104.805 43.0479 105.579 43.4205C105.977 43.612 106.38 43.8791 106.797 44.0061C106.872 44.3302 107.129 44.6085 107.56 44.5683C109.911 44.3498 112.249 43.9762 114.592 43.6951C116.98 43.4084 119.368 43.131 121.76 42.8797C126.459 42.3866 131.157 41.9093 135.86 41.4545C138.549 41.1939 141.263 41.0184 143.925 40.5476C144.167 40.5047 144.328 40.3758 144.422 40.2152C144.924 40.1218 145.06 39.4073 144.736 39.0421Z" fill="#FFEEA6"/>
<path d="M157.77 37.8345C157.216 37.3713 156.519 37.1312 155.869 36.8296C155.203 36.5204 154.55 36.1898 153.899 35.8508C152.6 35.1736 151.324 34.4517 150.057 33.7176C147.519 32.2476 145.043 30.686 142.617 29.0375C141.832 28.5033 141.082 29.8053 141.884 30.3283C144.337 31.9263 146.836 33.4617 149.372 34.9243C150.606 35.636 151.857 36.3177 153.104 37.0061C153.745 37.36 154.389 37.7075 155.025 38.0698C155.663 38.4332 156.332 38.9169 157.053 39.0841C157.723 39.2392 158.369 38.3351 157.77 37.8345Z" fill="#FFEEA6"/>
<path d="M166.993 37.2031C166.52 36.555 165.745 36.328 165.035 35.9918C164.305 35.6462 163.57 35.3072 162.844 34.9542C161.392 34.249 159.963 33.5009 158.533 32.7538C155.675 31.2594 152.857 29.6904 149.995 28.2035C149.091 27.7337 148.299 29.1123 149.211 29.5858C152.075 31.0736 154.982 32.4773 157.85 33.9576C159.245 34.6777 160.639 35.4006 162.015 36.1571C162.722 36.5447 163.419 36.95 164.12 37.3479C164.797 37.7317 165.531 38.3369 166.328 38.3482C166.857 38.3547 167.341 37.6794 166.993 37.2031Z" fill="#FFEEA6"/>
<path d="M175.42 35.4146C173.028 34.2247 170.594 33.1124 168.194 31.9365C165.792 30.7607 163.387 29.5942 160.966 28.4613C160.103 28.0578 159.355 29.3243 160.225 29.766C162.608 30.9755 165.006 32.1514 167.409 33.3179C169.811 34.4844 172.186 35.7153 174.595 36.866C175.555 37.3264 176.389 35.8965 175.42 35.4146Z" fill="#FFEEA6"/>
<path d="M188.272 34.4573C186.646 33.6195 184.891 32.9816 183.223 32.227C181.549 31.4705 179.868 30.7261 178.221 29.9126C174.934 28.2894 171.685 26.5952 168.412 24.9421C167.544 24.5041 166.79 25.8481 167.667 26.2543C171.001 27.7991 174.354 29.3009 177.674 30.8756C179.292 31.6433 180.877 32.4773 182.467 33.2982C184.124 34.1547 185.743 35.1531 187.44 35.9227C188.41 36.3635 189.251 34.9616 188.272 34.4573Z" fill="#FFEEA6"/>
<path d="M196.848 33.089C195.58 32.3932 194.198 31.8637 192.871 31.2902C191.535 30.714 190.211 30.12 188.892 29.5045C186.267 28.2801 183.631 27.0734 180.971 25.9256C180 25.5072 179.412 26.895 180.419 27.2817C183.114 28.3156 185.785 29.4046 188.415 30.5963C189.699 31.1782 190.956 31.8067 192.194 32.481C193.463 33.1712 194.702 33.9529 196.004 34.5768C196.984 35.0466 197.825 33.6242 196.848 33.089Z" fill="#FFEEA6"/>
</svg>
