<svg width="277" height="227" viewBox="0 0 277 227" fill="none" xmlns="http://www.w3.org/2000/svg">
<g opacity="0.6">
<path d="M189.565 155.414C199.595 156.503 209.642 157.966 219.382 159.894C229.119 161.823 238.563 164.194 247.288 167.229C240.308 164.812 233.169 162.893 225.97 161.281C231.367 162.494 236.309 163.771 241.215 165.265C246.12 166.76 251.002 168.459 256.17 170.739C254.615 170.046 252.137 169.036 249.817 168.18C247.499 167.321 245.346 166.606 244.499 166.345C231.639 162.183 218.342 159.473 205.069 157.44C191.786 155.422 178.484 154.165 165.357 153.429C175.783 153.957 182.229 154.637 189.565 155.414Z" fill="#F4B7A2"/>
<path d="M276.756 190.721C276.757 187.934 275.63 185.339 274.071 183.23C274.899 184.364 275.591 185.594 276.057 186.872C276.527 188.15 276.757 189.471 276.756 190.721Z" fill="#F4B7A2"/>
<path d="M13.946 173.979C12.5911 174.721 11.2619 175.52 9.98246 176.374C8.69785 177.219 7.46875 178.129 6.32422 179.099C7.47456 178.121 8.7043 177.21 9.98763 176.367C11.2658 175.515 12.5917 174.72 13.946 173.979Z" fill="#F4B7A2"/>
<path d="M154.232 153.111C152.611 153.07 150.981 153.03 149.324 152.989C136.923 152.717 124.341 152.868 111.575 153.536C125.462 152.802 140.323 152.635 154.232 153.111Z" fill="#F4B7A2"/>
<path d="M167.637 153.772C180.265 154.514 193.055 155.807 204.92 157.625C193.055 155.817 180.469 154.536 167.637 153.772Z" fill="#F4B7A2"/>
<path d="M60.147 221.64C60.0973 221.625 60.3342 221.666 60.6866 221.73C61.0565 221.795 61.389 221.852 61.6698 221.901C66.692 222.818 71.7285 223.61 76.7662 224.295C75.5133 224.131 74.3494 223.975 73.0731 223.79C67.5086 222.948 66.3447 222.747 60.147 221.64Z" fill="#F4B7A2"/>
<path d="M17.0001 172.392C17.0943 172.345 17.1924 172.296 17.2893 172.248C18.2395 171.777 19.191 171.347 20.1406 170.921C20.2555 170.872 20.3607 170.826 20.4872 170.772C19.3195 171.282 18.1575 171.821 17.0001 172.392Z" fill="#F4B7A2"/>
<path d="M53.7774 220.376C53.6793 220.345 53.578 220.315 53.1474 220.218C55.9645 220.824 58.7849 221.37 61.6104 221.89C61.2708 221.831 60.9467 221.775 60.6866 221.73C58.8055 221.384 55.8657 220.813 53.7774 220.376Z" fill="#F4B7A2"/>
<path d="M0.0154156 190.275C0.0767414 188.488 0.638356 186.969 0.986944 186.208C1.95718 184.092 3.4574 182.238 5.23585 180.546C7.03044 178.862 9.10841 177.317 11.4911 175.851C12.216 175.378 13.8034 174.46 15.3307 173.647C16.2416 173.175 17.2396 172.69 18.2976 172.192C15.516 173.514 12.7731 174.969 10.1877 176.69C7.60109 178.397 5.14871 180.38 3.17595 182.789C2.19926 183.997 1.362 185.324 0.787474 186.763C0.199392 188.196 -0.0594659 189.754 0.0257447 191.3C0.097399 192.85 0.563473 194.374 1.27937 195.774C1.99204 197.18 2.94549 198.473 4.02741 199.655C2.86739 198.388 1.83582 196.974 1.08184 195.398C0.364003 193.816 -0.0910975 192.065 0.0154156 190.275Z" fill="#F4B7A2"/>
<path d="M78.606 224.543C85.193 225.405 91.7787 226.104 98.3683 226.647C91.2746 226.067 84.9451 225.402 78.606 224.543Z" fill="#F4B7A2"/>
<path d="M79.1954 156.89C81.7923 156.567 84.7308 156.241 87.9152 155.905C79.5104 156.798 71.1507 157.935 62.8175 159.413C54.4862 160.892 46.175 162.697 37.9276 165.046L37.9083 165.05C44.5089 163.143 52.691 161.271 60.3031 159.869C67.9146 158.452 74.9439 157.461 79.1954 156.89Z" fill="#F4B7A2"/>
<path d="M60.6866 221.73C60.9468 221.775 61.2702 221.831 61.6104 221.89C61.6291 221.893 61.6453 221.897 61.6704 221.901C61.3896 221.852 61.0572 221.795 60.6866 221.73Z" fill="#F4B7A2"/>
<path d="M111.44 153.659C111.99 153.631 112.528 153.602 113.074 153.574C108.933 153.782 104.788 154.046 100.64 154.367C103.95 154.105 107.641 153.864 111.44 153.659Z" fill="#F4B7A2"/>
<path d="M156.084 153.296C164.552 153.591 173.024 154.108 181.467 154.862C192.325 155.842 202.953 157.224 213.013 159.014C194.31 155.742 175.304 154.007 156.084 153.296Z" fill="#F4B7A2"/>
<path d="M111.664 154.021C115.151 153.841 118.687 153.704 122.234 153.604C118.681 153.711 115.152 153.856 111.634 154.044C112.298 154.003 111.735 154.023 111.664 154.021Z" fill="#F4B7A2"/>
<path d="M76.7881 156.875C77.6292 156.763 78.4736 156.652 79.3083 156.542C77.1554 156.821 74.9993 157.125 72.8491 157.444C73.634 157.331 75.4874 157.062 76.7881 156.875Z" fill="#F4B7A2"/>
<path d="M149.284 153.498C146.676 153.439 144.082 153.403 141.5 153.38C143.037 153.392 144.559 153.405 146.095 153.417C146.945 153.438 148.031 153.466 149.284 153.498Z" fill="#F4B7A2"/>
<path d="M189.637 156.081C193.183 156.467 196.618 156.894 199.907 157.347C195.831 156.793 191.641 156.294 187.502 155.864C188.448 155.953 189.192 156.028 189.637 156.081Z" fill="#F4B7A2"/>
</g>
<path d="M124.794 60.9145L237.762 98.3555L148.679 129.341L35.7102 87.3814L124.794 60.9145Z" fill="#BF824F"/>
<path d="M69.9235 121.918C69.9235 121.918 68.3097 48.0038 23.4451 34.7704" stroke="#34322D" stroke-width="2" stroke-miterlimit="10" stroke-linecap="round" stroke-linejoin="round"/>
<path d="M23.602 29.4744C27.8619 31.3007 30.546 34.5742 29.5977 36.7864C28.6494 38.998 24.4276 39.3104 20.1677 37.4842C15.9079 35.658 13.2237 32.3845 14.1714 30.1723C15.1203 27.9607 19.3421 27.6482 23.602 29.4744Z" fill="#34322D"/>
<path d="M31.7098 40.6699C36.3067 40.0767 40.2825 41.5304 40.5905 43.9176C40.899 46.3042 37.4215 48.7197 32.8253 49.313C28.2285 49.9062 24.2526 48.4525 23.9447 46.066C23.6361 43.6794 27.1136 41.2638 31.7098 40.6699Z" fill="#34322D"/>
<path d="M42.8783 34.5064C44.0738 38.9845 43.1578 43.1172 40.8326 43.7388C38.508 44.3598 35.6535 41.2322 34.4586 36.7548C33.2631 32.2767 34.1784 28.1434 36.5036 27.5223C38.8288 26.902 41.6828 30.029 42.8783 34.5064Z" fill="#34322D"/>
<path d="M42.5974 50.6531C47.854 51.2799 51.8505 53.9996 51.5258 56.7295C51.2011 59.4588 46.6759 61.163 41.42 60.5369C36.1641 59.9107 32.1669 57.1911 32.4916 54.4611C32.8176 51.7311 37.3422 50.0269 42.5974 50.6531Z" fill="#34322D"/>
<path d="M56.6875 46.9452C56.7618 52.2379 54.5934 56.5598 51.8447 56.5985C49.0967 56.6372 46.8089 52.3767 46.7353 47.0846C46.6617 41.7919 48.8295 37.4694 51.5775 37.4313C54.3255 37.3925 56.6133 41.6531 56.6875 46.9452Z" fill="#34322D"/>
<path d="M52.2585 64.0286C57.8934 66.2202 61.5381 70.369 60.4 73.2952C59.2626 76.2208 53.7723 76.8153 48.1374 74.6237C42.5032 72.4321 38.8579 68.2846 39.9953 65.3577C41.134 62.4322 46.625 61.837 52.2585 64.0286Z" fill="#34322D"/>
<path d="M68.8985 63.946C67.4719 69.821 63.8407 73.9821 60.7899 73.241C57.7398 72.5006 56.4242 67.1362 57.8521 61.2618C59.28 55.3868 62.9105 51.2251 65.9607 51.9661C69.0114 52.7079 70.3264 58.0723 68.8985 63.946Z" fill="#34322D"/>
<path d="M59.6557 82.4244C65.5416 86.2324 68.7099 91.7969 66.7326 94.8529C64.756 97.9095 58.382 97.2994 52.4967 93.4914C46.6113 89.6841 43.4424 84.1202 45.419 81.0636C47.397 78.0076 53.7716 78.617 59.6557 82.4244Z" fill="#34322D"/>
<path d="M78.5717 86.226C75.5758 92.5632 70.4787 96.439 67.1884 94.8832C63.8981 93.3281 63.6599 86.9289 66.6558 80.5924C69.6524 74.2552 74.7495 70.3787 78.0398 71.9345C81.3301 73.4896 81.5683 79.89 78.5717 86.226Z" fill="#34322D"/>
<path d="M179.806 127.765C179.806 127.765 218.445 64.7348 263.866 75.911" stroke="#34322D" stroke-width="2" stroke-miterlimit="10" stroke-linecap="round" stroke-linejoin="round"/>
<path d="M266.398 71.2573C261.8 70.6886 257.832 72.163 257.535 74.5521C257.24 76.9406 260.729 79.3374 265.329 79.9068C269.928 80.4755 273.896 79.0011 274.192 76.612C274.488 74.2242 270.998 71.8267 266.398 71.2573Z" fill="#34322D"/>
<path d="M253.754 76.8425C250.083 74.0144 245.915 73.2662 244.447 75.1731C242.978 77.0794 244.763 80.9177 248.435 83.7465C252.106 86.5745 256.274 87.3234 257.742 85.4164C259.212 83.5095 257.425 79.6712 253.754 76.8425Z" fill="#34322D"/>
<path d="M247.213 65.8903C243.924 69.1561 242.632 73.1875 244.327 74.8955C246.022 76.6036 250.064 75.3403 253.353 72.0752C256.642 68.8094 257.934 64.7781 256.238 63.0706C254.543 61.3626 250.501 62.6252 247.213 65.8903Z" fill="#34322D"/>
<path d="M239.32 79.9791C234.464 77.8715 229.64 78.2065 228.545 80.7286C227.451 83.2494 230.501 87.0019 235.356 89.1089C240.212 91.2166 245.034 90.8816 246.129 88.3601C247.223 85.8386 244.175 82.0862 239.32 79.9791Z" fill="#34322D"/>
<path d="M229.017 69.677C226.287 74.2113 225.981 79.0366 228.336 80.4549C230.689 81.8725 234.812 79.3459 237.543 74.8116C240.274 70.2774 240.579 65.4514 238.225 64.0338C235.871 62.6155 231.747 65.1428 229.017 69.677Z" fill="#34322D"/>
<path d="M224.235 86.6643C218.263 85.7179 213.024 87.4641 212.533 90.5653C212.041 93.6651 216.484 96.9457 222.456 97.8914C228.426 98.8384 233.665 97.0922 234.157 93.9911C234.648 90.8906 230.205 87.6106 224.235 86.6643Z" fill="#34322D"/>
<path d="M209.903 78.2084C208.175 84.0021 209.215 89.4259 212.224 90.3232C215.231 91.2205 219.07 87.2498 220.797 81.4568C222.524 75.6624 221.485 70.2387 218.477 69.3414C215.468 68.4441 211.629 72.4154 209.903 78.2084Z" fill="#34322D"/>
<path d="M208.575 98.8268C201.573 99.1502 196.032 102.36 196.2 105.995C196.368 109.632 202.18 112.316 209.182 111.992C216.184 111.67 221.725 108.461 221.558 104.825C221.39 101.189 215.577 98.5034 208.575 98.8268Z" fill="#34322D"/>
<path d="M190.32 92.5787C189.715 99.5614 192.165 105.478 195.791 105.793C199.417 106.108 202.847 100.699 203.452 93.7167C204.057 86.7334 201.607 80.817 197.981 80.502C194.355 80.187 190.926 85.5953 190.32 92.5787Z" fill="#34322D"/>
<path d="M140.025 0L145.297 4.56844L154.829 97.4428L64.4571 131.601L48.2484 32.1263L140.025 0Z" fill="#C44952"/>
<path d="M138.052 2.43173L145.667 5.50448L58.3427 33.4374L138.052 2.43173Z" fill="#F4E9E1"/>
<path d="M137.337 2.71187L152.5 78.4498L60.919 111.493L49.4014 33.2121L137.337 2.71187Z" fill="#F4E9E1"/>
<path d="M48.2484 32.1263L57.7268 37.1544L71.824 132.963L62.3456 127.935L48.2484 32.1263Z" fill="#F4B7A2"/>
<path d="M140.025 0L149.309 4.11076L145.097 5.58839L136.125 1.60867L140.025 0Z" fill="#C44952"/>
<path d="M149.309 4.11074L147.305 3.42131L56.0032 36.1396L57.7268 37.1544L149.309 4.11074Z" fill="#C44952"/>
<path d="M56.0032 36.1396L70.5084 134.73L72.221 135.659L60.2205 36.3048L56.0032 36.1396Z" fill="#C44952"/>
<path d="M149.309 4.11073L163.802 102.615L72.221 135.659L57.7268 37.1543L149.309 4.11073Z" fill="#FC878B"/>
<path d="M143.668 6.1461L158.161 104.651L163.802 102.615L149.309 4.11073L143.668 6.1461Z" fill="#E46A3C"/>
<path d="M49.9384 32.9261L64.4571 131.601L62.742 130.63L48.2484 32.1263L49.9384 32.9261Z" fill="#C44952"/>
<path d="M144.231 10.7823L156.41 93.5527" stroke="#FDF7EC" stroke-width="2" stroke-miterlimit="10" stroke-linecap="round" stroke-linejoin="round"/>
<mask id="mask0_110_2169" style="mask-type:luminance" maskUnits="userSpaceOnUse" x="57" y="4" width="107" height="132">
<path d="M149.309 4.11073L163.802 102.615L72.221 135.659L57.7268 37.1543L149.309 4.11073Z" fill="white"/>
</mask>
<g mask="url(#mask0_110_2169)">
<path d="M128.087 26.1441C133.855 65.3403 106.755 101.79 67.5589 107.558C28.3634 113.325 -8.08735 86.2246 -13.8539 47.0291C-19.6218 7.83352 7.47842 -28.6166 46.674 -34.3838C85.8702 -40.1516 122.321 -13.0515 128.087 26.1441Z" stroke="#C44952" stroke-width="2" stroke-miterlimit="10" stroke-linecap="round" stroke-linejoin="round"/>
<path d="M121.589 27.1008C126.828 62.7072 102.209 95.8205 66.6029 101.059C30.9965 106.299 -2.11685 81.6801 -7.35601 46.0737C-12.5945 10.4673 12.0236 -22.646 47.6306 -27.8845C83.237 -33.1243 116.35 -8.50559 121.589 27.1008Z" stroke="#C44952" stroke-width="2" stroke-miterlimit="10" stroke-linecap="round" stroke-linejoin="round"/>
<path d="M114.407 28.1575C119.062 59.7971 97.1863 89.2218 65.5461 93.8768C33.9059 98.5317 4.48181 76.6565 -0.173142 45.0169C-4.82873 13.3767 17.0471 -16.0474 48.6867 -20.7023C80.3269 -25.3586 109.751 -3.48205 114.407 28.1575Z" stroke="#C44952" stroke-width="2" stroke-miterlimit="10" stroke-linecap="round" stroke-linejoin="round"/>
<path d="M106.197 29.3653C110.186 56.4719 91.4444 81.68 64.3384 85.6675C37.2317 89.6563 12.0236 70.9145 8.03552 43.8085C4.04676 16.7019 22.7886 -8.50562 49.8952 -12.4944C77.0018 -16.4825 102.209 2.25931 106.197 29.3653Z" stroke="#C44952" stroke-width="2" stroke-miterlimit="10" stroke-linecap="round" stroke-linejoin="round"/>
<path d="M97.9894 30.5731C101.311 53.1468 85.7036 74.1376 63.1305 77.4596C40.5581 80.7808 19.566 65.1744 16.2441 42.6013C12.9228 20.0283 28.5299 -0.96383 51.1029 -4.2851C73.676 -7.60702 94.6675 8.00006 97.9894 30.5731Z" stroke="#C44952" stroke-width="2" stroke-miterlimit="10" stroke-linecap="round" stroke-linejoin="round"/>
<path d="M90.4644 31.6802C93.1744 50.0973 80.4406 67.2246 62.0235 69.9346C43.6064 72.6439 26.4791 59.9107 23.7691 41.4936C21.0598 23.0759 33.7936 5.94856 52.2107 3.23926C70.6272 0.529303 87.7545 13.2631 90.4644 31.6802Z" stroke="#C44952" stroke-width="2" stroke-miterlimit="10" stroke-linecap="round" stroke-linejoin="round"/>
<path d="M82.9395 32.7873C85.0381 47.0491 75.1776 60.3116 60.9164 62.4102C46.6553 64.5089 33.3921 54.6483 31.2935 40.3865C29.1949 26.1247 39.056 12.8622 53.3178 10.7642C67.579 8.66562 80.8415 18.5255 82.9395 32.7873Z" stroke="#C44952" stroke-width="2" stroke-miterlimit="10" stroke-linecap="round" stroke-linejoin="round"/>
<path d="M75.0729 33.9447C76.5318 43.8621 69.6756 53.0842 59.7583 54.5437C49.8416 56.0026 40.6195 49.1458 39.1599 39.2291C37.701 29.3117 44.5572 20.0896 54.4739 18.6307C64.3913 17.1712 73.614 24.028 75.0729 33.9447Z" stroke="#C44952" stroke-width="2" stroke-miterlimit="10" stroke-linecap="round" stroke-linejoin="round"/>
</g>
<path d="M123.893 20.8036L129.003 21.2439L164.066 102.787L89.3677 154.583L52.6472 69.1845L123.893 20.8036Z" fill="#294A91"/>
<path d="M127.847 23.0553L157.726 30.3085L88.1496 77.6746L67.9689 71.5962L127.847 23.0553Z" fill="#F4E9E1"/>
<path d="M127.847 23.0553L159.342 86.8986L84.6431 138.694L55.8284 71.6808L127.847 23.0553Z" fill="#F4E9E1"/>
<path d="M161.9 29.1162L198.621 114.513L123.922 166.308L87.2013 80.9113L161.9 29.1162Z" fill="#294A91"/>
<path d="M91.1713 78.1581L87.2013 80.9113L123.922 166.308L127.891 163.556L91.1713 78.1581Z" fill="#1D315C"/>
<path d="M61.0991 67.876L91.1926 78.1413L87.2013 80.9113L57.1078 70.646L61.0991 67.876Z" fill="#294A91"/>
<path d="M161.9 29.1162L157.871 28.7373L83.3623 79.748L87.2013 80.9113L161.9 29.1162Z" fill="#294A91"/>
<path d="M89.3677 154.583L123.922 166.308L87.2013 80.9113L52.6472 69.1845L89.3677 154.583Z" fill="#1D315C"/>
<path d="M58.1671 77.1194L70.3044 105.347L98.8261 115.026L86.6881 86.7986L58.1671 77.1194Z" fill="#02668F"/>
<path d="M89.1928 89.7622L58.5422 79.3607" stroke="#02415D" stroke-miterlimit="10"/>
<path d="M90.8499 93.6167L60.1999 83.2152" stroke="#02415D" stroke-miterlimit="10"/>
<path d="M92.5076 97.4718L61.857 87.0703" stroke="#02415D" stroke-miterlimit="10"/>
<path d="M94.1647 101.326L63.5147 90.9248" stroke="#02415D" stroke-miterlimit="10"/>
<path d="M95.8224 105.181L65.1724 94.7793" stroke="#02415D" stroke-miterlimit="10"/>
<path d="M97.4802 109.036L66.8296 98.6344" stroke="#02415D" stroke-miterlimit="10"/>
<path d="M99.1373 112.89L68.4873 102.488" stroke="#02415D" stroke-miterlimit="10"/>
<path d="M88.0695 146.661L116.591 156.34L115.061 152.782L86.5396 143.103L88.0695 146.661Z" fill="#02668F"/>
<path d="M85.6895 141.126L114.211 150.805L112.681 147.247L84.1595 137.568L85.6895 141.126Z" fill="#02668F"/>
<path d="M88.4684 83.8633L121.278 160.167" stroke="#02668F" stroke-width="2" stroke-miterlimit="10" stroke-linecap="round" stroke-linejoin="round"/>
<path d="M74.0092 67.1233L131.939 26.9891" stroke="#34322D" stroke-miterlimit="10" stroke-linecap="round" stroke-linejoin="round"/>
<path d="M78.4472 68.7287L136.376 28.5939" stroke="#34322D" stroke-miterlimit="10" stroke-linecap="round" stroke-linejoin="round"/>
<path d="M82.8846 70.3335L140.814 30.1994" stroke="#34322D" stroke-miterlimit="10" stroke-linecap="round" stroke-linejoin="round"/>
<path d="M87.322 71.939L145.252 31.8048" stroke="#34322D" stroke-miterlimit="10" stroke-linecap="round" stroke-linejoin="round"/>
<path d="M209.36 42.3683L213.88 44.7917V133.552L124.797 151.627V58.6706L209.36 42.3683Z" fill="#8C3E24"/>
<path d="M210.167 45.3539L213.88 116.445L124.797 134.52V61.5756L210.167 45.3539Z" fill="#F4E9E1"/>
<path d="M210.167 45.3539L220.818 50.3568L135.448 72.8724L130.606 65.7715L210.167 45.3539Z" fill="#F4E9E1"/>
<path d="M226.791 51.247V144.203L137.707 162.278V69.322L226.791 51.247Z" fill="#E46A3C"/>
<mask id="mask1_110_2169" style="mask-type:luminance" maskUnits="userSpaceOnUse" x="137" y="51" width="90" height="112">
<path d="M226.791 51.247V144.203L137.707 162.278V69.322L226.791 51.247Z" fill="white"/>
</mask>
<g mask="url(#mask1_110_2169)">
<path d="M140.719 112.785C165.894 112.785 178.375 113.646 192.791 134.518C207.208 155.39 226.36 159.264 226.36 159.264" stroke="#F4B7A2" stroke-width="2" stroke-miterlimit="10"/>
<path d="M179.666 120.532C201.184 120.532 182.248 66.3067 236.043 65.0157" stroke="#F4B7A2" stroke-width="2" stroke-miterlimit="10"/>
<path d="M197.526 88.4705C212.588 77.2808 232.385 85.2428 243.789 96.8631" stroke="#F4B7A2" stroke-width="2" stroke-miterlimit="10"/>
<path d="M153.199 60.2819C183.539 74.0531 181.602 103.102 171.489 116.228" stroke="#F4B7A2" stroke-width="2" stroke-miterlimit="10"/>
<path d="M235.827 134.951C224.853 108.268 199.677 123.543 192.791 134.518" stroke="#F4B7A2" stroke-width="2" stroke-miterlimit="10"/>
<path d="M150.402 165.506C179.666 153.886 179.666 128.495 175.577 117.951" stroke="#F4B7A2" stroke-width="2" stroke-miterlimit="10"/>
</g>
<path d="M142.441 68.3614L137.707 69.322V162.278L142.441 161.318V68.3614Z" fill="#E46A3C"/>
<path d="M124.797 58.6707L137.707 69.322V162.278L124.797 151.627V58.6707Z" fill="#E46A3C"/>
<path d="M129.557 57.7024L142.468 68.3537L137.707 69.322L124.797 58.6707L129.557 57.7024Z" fill="#8C3E24"/>
<path d="M124.797 73.088V81.265L137.707 91.9163V83.7393L124.797 73.088Z" fill="#D9A676"/>
<path d="M124.797 86.2143V90.5181L137.707 101.169V96.865L124.797 86.2143Z" fill="#D9A676"/>
<path d="M124.797 140.009V144.312L137.707 154.963V150.66L124.797 140.009Z" fill="#D9A676"/>
<path d="M226.791 51.247L223.239 49.3078L134.64 66.7373L137.707 69.322L226.791 51.247Z" fill="#8C3E24"/>
<path d="M137.491 70.1805V160.125" stroke="#D9A676" stroke-width="2" stroke-miterlimit="10" stroke-linecap="round" stroke-linejoin="round"/>
<path d="M35.7103 87.3814V180.338L148.679 222.298V129.341L35.7103 87.3814Z" fill="#63A19A"/>
<path d="M237.762 98.3555V191.312L148.679 222.298V129.341L237.762 98.3555Z" fill="#63A19A"/>
<path d="M148.679 129.341V222.298L35.7103 180.338" stroke="#447872" stroke-width="2" stroke-miterlimit="10" stroke-linecap="round" stroke-linejoin="round"/>
<path d="M148.679 222.298L237.762 191.312" stroke="#447872" stroke-width="2" stroke-miterlimit="10" stroke-linecap="round" stroke-linejoin="round"/>
<path d="M35.7103 122.105L124.579 155.164L148.679 129.57V129.341L148.368 129.226L35.7103 104.524V122.105Z" fill="#34322D"/>
<path d="M122.212 146.771L148.679 129.341L35.7103 87.3814L10.7494 104.596L122.212 146.771Z" fill="#F4C9A8"/>
<path d="M237.762 131.424V115.383L148.679 129.341L173.693 154.84L237.762 131.424Z" fill="#34322D"/>
<path d="M175.361 146.771L148.894 129.341L237.762 98.3555L262.723 115.57L175.361 146.771Z" fill="#F4C9A8"/>
<path d="M35.3875 144.834L148.356 183.243L238.085 155.808" stroke="#FFEEA6" stroke-width="2" stroke-miterlimit="10" stroke-linecap="round" stroke-linejoin="round"/>
<path d="M197.739 167.858C197.739 167.858 192.575 151.074 183.538 154.517C174.5 157.96 197.739 167.858 197.739 167.858Z" stroke="#FFEEA6" stroke-width="2" stroke-miterlimit="10" stroke-linecap="round" stroke-linejoin="round"/>
<path d="M197.739 167.858C197.739 167.858 202.689 146.556 211.511 150.429C220.332 154.302 197.739 167.858 197.739 167.858Z" stroke="#FFEEA6" stroke-width="2" stroke-miterlimit="10" stroke-linecap="round" stroke-linejoin="round"/>
<path d="M186.335 185.718C193.436 173.882 198.6 183.997 193.866 183.566C189.132 183.135 189.562 173.883 197.739 167.858C197.739 167.858 197.955 177.971 203.98 179.908C210.004 181.844 213.878 172.807 207.853 172.592" stroke="#FFEEA6" stroke-width="2" stroke-miterlimit="10" stroke-linecap="round" stroke-linejoin="round"/>
</svg>
